<?xml version="1.0" encoding="utf-8"?>
<!-- Generator: Adobe Illustrator 16.0.0, SVG Export Plug-In . SVG Version: 6.00 Build 0)  -->
<!DOCTYPE svg PUBLIC "-//W3C//DTD SVG 1.1//EN" "http://www.w3.org/Graphics/SVG/1.1/DTD/svg11.dtd">
<svg version="1.1" id="Layer_1" xmlns="http://www.w3.org/2000/svg" xmlns:xlink="http://www.w3.org/1999/xlink" x="0px" y="0px"
	 width="1000px" height="300px" viewBox="0 0 1000 300" enable-background="new 0 0 1000 300" xml:space="preserve">
<g>
	<path fill="#348088" d="M30.092,190.951c0,0,1.76-15.47-9.737-20.953c-11.496-5.481-9.285-12.855-2.206-6.515
		c7.077,6.34,9.29,6.515,9.29,6.515s-0.442-10.82-9.29-15.451c-8.848-4.63-10.84-15.741-5.863-18.369
		c4.978-2.629,3.65,4.607,4.093,8.288c0.442,3.682,8.405,10.082,8.405,10.082s-1.327-7.687,3.097-13.458
		c4.424-5.77,3.981-12.138,0-15.811c-3.982-3.673-3.424-18.643,3.154-18.68c6.578-0.034,1.827,3.548,0,9.277
		c-1.827,5.729,7.273,10.09,4.713,15.65c0,0,7.944-0.364,8.666-6.248c0.72-5.885,9.125-4.998,6.47,3.628
		c-2.654,8.625-15.136,7.272-15.136,7.272s-6.152,6.737-5.24,11.787c0,0,5.951-2.101,9.846,2.58c3.895,4.682,4.78-9.672,10.53-8.688
		c5.751,0.984,3.54,8.032-3.096,12.691c-6.635,4.659-10.384-10.302-15.885,0c-5.501,10.303,3.845,15.783,3.845,15.783
		s8.387-6.131,8.666,0c0.277,6.129-6.397,5.734-7.925,8.808c-1.529,3.073,0,11.813,0,11.813H30.092z"/>
	<polygon fill="#5B4B43" points="43.802,226.732 46.458,186.531 16.187,186.531 18.842,226.732 	"/>
</g>
<g>
	<path fill="none" stroke="#595A5C" stroke-width="2.25" stroke-linecap="round" stroke-miterlimit="10" d="M506.766,134.252
		l-14.346,47.594c-0.427,1.416-1.73,2.385-3.209,2.385h-15.272c-1.851,0-3.352,1.502-3.352,3.353v32.343
		c0,1.852,1.501,3.353,3.352,3.353h19.737h-44.969c-1.851,0-3.351-1.501-3.351-3.353v-32.343c0-1.851,1.5-3.353,3.351-3.353h15.271
		c1.479,0,2.784-0.969,3.21-2.385l13.905-46.129c1.036-3.435,4.197-5.784,7.785-5.784h14.679
		C505.805,129.932,507.415,132.1,506.766,134.252z"/>
	<path fill="#11393D" d="M476.543,161.287h19.508c1.58,0,2.974-1.036,3.425-2.548l6.556-21.726c0.438-1.459-0.663-2.934-2.177-2.934
		h-19.522c-1.578,0-2.959,1.036-3.423,2.55l-6.543,21.724C473.929,159.813,475.017,161.287,476.543,161.287z"/>
	<path fill="#4B9FA3" d="M476.542,161.287h16.854c1.58,0,2.973-1.036,3.424-2.548l6.556-21.726c0.438-1.459-0.663-2.934-2.176-2.934
		h-16.855c-1.578,0-2.973,1.036-3.437,2.55l-6.543,21.724C473.927,159.813,475.016,161.287,476.542,161.287z"/>
	<path fill="#4B9FA3" d="M484.659,174.713h-35.629c-1.649,0-2.986,1.337-2.986,2.985v4.645h41.601v-4.645
		C487.644,176.05,486.308,174.713,484.659,174.713z"/>
	<path fill="#11393D" d="M488.171,179.544h-42.655c-0.74,0-1.34,0.6-1.34,1.339v1.775c0,0.74,0.601,1.341,1.34,1.341h42.655
		c0.74,0,1.339-0.601,1.339-1.341v-1.775C489.511,180.144,488.912,179.544,488.171,179.544z"/>
	<path fill="none" stroke="#808182" stroke-width="2.25" stroke-linecap="round" stroke-miterlimit="10" d="M488.879,129.932h14.679
		c2.247,0,3.857,2.168,3.208,4.32l-14.346,47.594c-0.427,1.416-1.73,2.385-3.209,2.385h-15.272c-1.851,0-3.352,1.502-3.352,3.353
		v32.343c0,1.852,1.501,3.353,3.352,3.353h19.737"/>
</g>
<g>
	<path fill="#D14F4E" d="M479.071,115.687c-3.289-1.548-11.631-0.503-11.775,1.864c-0.142,2.366,3.878,6.65,7.882,4.756
		C479.182,120.414,481.75,116.947,479.071,115.687z"/>
	<path fill="#195C6B" d="M479.071,99.456c0,0,2.101-2.487,6.027-1.741c3.927,0.746,0.729,7.871,1.747,9.893
		c1.019,2.022,3.617,2.741,2.567,5.173c-1.052,2.434-2.599,4.702-0.056,6.637c2.543,1.935,1.282,4.258-2.511,1.88
		c-3.793-2.377-2.853-5.695-3.35-7.299c-0.498-1.604-1.604,1.604-3.041-3.706C479.016,104.986,479.071,99.456,479.071,99.456z"/>
	<path fill="#DD8866" d="M460.418,141.426c2.128-5.496,4.155-11.892,4.155-11.892l1.542-10.871
		c-5.355-0.368-7.014,6.408-8.175,10.069c-0.972,3.064-3.558,10.376-4.379,12.693H460.418z"/>
	<path fill="#F3A17B" d="M437.592,206.243c-0.079-0.27-0.144-0.504-0.156-0.785c0.433-1.813,1.445-6.027,3.048-10.964h-4.333
		c-1.092,4.509-2.174,8.692-3.074,11.66c-0.584,1.924-3.42,5.747-4.524,6.64c-0.006,0.005-0.012,0.007-0.029,0.013
		c-0.138,0.033-0.841,0.246-1.471,0.777c-0.189,0.159-0.363,0.361-0.525,0.585h6.035c0.313-0.308,0.709-0.785,1.173-1.527
		c0.95-1.523,2.781-1.18,2.781-1.18c0.565,0.495,0.658,2.749,0.672,3.278h0.709c0.247-0.633,1.11-3.54,0.849-4.628
		C438.529,209.237,437.875,207.211,437.592,206.243z"/>
	<path fill="#DD8866" d="M460.234,215.701c-1.344-5.203-2.451-6.556-3.291-20.821c-0.008-0.13-0.014-0.255-0.02-0.386h-6.199
		c2.5,9.593,5.195,20.214,4.994,21.119c-0.436,1.962-3.419,5.747-4.523,6.64c-0.006,0.006-0.012,0.006-0.029,0.011
		c-0.137,0.036-0.841,0.247-1.47,0.778c-0.19,0.158-0.365,0.36-0.525,0.584h6.034c0.312-0.307,0.708-0.783,1.173-1.526
		c0.949-1.522,2.781-1.18,2.781-1.18c0.566,0.494,0.656,2.749,0.671,3.278h0.71c0.247-0.632,1.11-3.54,0.85-4.628
		C461.171,218.695,460.486,216.68,460.234,215.701z"/>
	<path fill="#50453B" d="M474.972,174.698c0,0,2.849,0.504,3.86,0.427c10.948-0.826,9.302-6.51,8.347-10.158
		c-2.548-9.794-4.904-14.415-4.904-14.415c-1.275,0.418-2.966,0.645-4.792,0.757c-2.654,0.159-5.581,0.066-7.843-0.072
		c-0.743-0.046-1.414-0.093-1.985-0.14c-1.174-0.094-1.91-0.172-1.91-0.172c-1.407,2.72-2.734,8.924-3.776,14.949
		c-0.053,0.313-0.106,0.624-0.159,0.929c-0.77,4.553-3.611,9.725-1.063,9.996C469.885,177.774,474.972,174.698,474.972,174.698z"/>
	<path fill="#726659" d="M475.549,157.089c-10.503-2.104-26.873-0.928-28.615,0c-2.263,1.203-4.897,10.364-5.086,11.5
		c-0.49,2.937-4.783,19.948-7.796,31.408c0,0,2.488,1.908,5.475,1.154c0,0,2.737-12.851,6.135-19.405
		c3.196-6.165,4.544-9.17,5.333-13.935c10.441,0.61,26.8,8.988,26.8,8.988C481.068,166.432,475.549,157.089,475.549,157.089z"/>
	<path fill="#50453B" d="M454.731,212.355c0,0,3.125,0,4.619-1.914c0,0-1.859-6.247-2.408-15.562c-0.459-7.797,0-13.683-3.226-17.61
		c0,0,12.19,0.942,19.333-1.732l-4.739-11.648c-10.503-2.102-14.815,2.465-17.655,2.515c-4.556,0.08-4.969,7.826-3.959,12.609
		C447.1,180.92,452.55,202.897,454.731,212.355z"/>
	<path fill="#726659" d="M470.879,156.783c-10.502-2.103-22.203-0.622-23.945,0.306c-2.263,1.203,2.611,9.325,5.044,9.048
		c10.44,0.611,16.742,11.328,29.74,10.657c0,0,8.123-0.96,7.41-10.943c-0.553-7.742-6.853-15.298-6.853-15.298l-16.526,0.371
		C465.57,155.014,470.879,156.783,470.879,156.783z"/>
	<path fill="#11393D" d="M466.115,118.664c0,0,4.754,0.454,8.785,0.333c2.957-0.089,7.808-0.4,10.454,2.819
		c3.281,3.992,0.453,11.015-1.834,16.281c-0.853,1.962-1.272,8.331-0.83,12.981c0,0-9.209,3.221-17.305,1.543l-2.779-10.426
		C462.606,142.194,454.879,130.722,466.115,118.664z"/>
	<g>
		<path fill="#195C6B" d="M469.798,97.715c0,0-3.906,0.229-5.068,5.886c-1.161,5.659,4.482,5.568,4.482,5.568l3.427-9.823
			L469.798,97.715z"/>
		<path fill="#F3A17B" d="M472.398,116.375c-3.533,0.294-5.682-3.009-6.081-7.321c-0.042-0.47-0.06-0.953-0.058-1.446
			c-0.013-1.348,0.15-2.764,0.479-4.176c1.548-6.62,10.973-3.967,10.973-3.967C485.096,102.782,478.546,115.867,472.398,116.375z"/>
		
			<ellipse transform="matrix(0.9999 0.0162 -0.0162 0.9999 1.8002 -7.6177)" fill="#1C4951" cx="471.324" cy="107.359" rx="0.482" ry="0.761"/>
		
			<ellipse transform="matrix(0.9882 -0.1531 0.1531 0.9882 -11.1181 73.6656)" fill="#ED7D66" cx="472.612" cy="109.002" rx="0.891" ry="0.712"/>
		<path fill="#ED7D66" d="M467.131,108.563c-0.084,0.316-0.42,0.512-0.813,0.491c-0.042-0.47-0.06-0.953-0.058-1.446
			c0.067,0.004,0.128,0.014,0.195,0.03C466.933,107.769,467.231,108.178,467.131,108.563z"/>
		<path fill="#1C4951" d="M472.167,107.107c0,0-0.269-0.953-0.612-0.958c-0.344-0.006-0.882,0.665-0.882,0.665l-0.65-0.426
			l0.616,0.207c0,0,0.484-0.759,0.967-0.633C472.088,106.087,472.167,107.107,472.167,107.107z"/>
		
			<ellipse transform="matrix(0.9999 0.0162 -0.0162 0.9999 1.792 -7.5587)" fill="#1C4951" cx="467.442" cy="106.825" rx="0.482" ry="0.761"/>
		<path fill="#1C4951" d="M468.26,106.698c0,0-0.27-0.954-0.612-0.958c-0.343-0.006-0.882,0.665-0.882,0.665l-0.65-0.426
			l0.615,0.207c0,0,0.486-0.759,0.969-0.633C468.181,105.678,468.26,106.698,468.26,106.698z"/>
		<g>
			<path fill="#195C6B" d="M472.576,104.897c-0.06-0.001-0.119-0.03-0.156-0.082c-0.415-0.584-1.159-0.478-1.167-0.476
				c-0.105,0.018-0.204-0.056-0.219-0.161c-0.018-0.105,0.055-0.203,0.16-0.22c0.04-0.006,0.988-0.143,1.541,0.634
				c0.062,0.086,0.041,0.207-0.046,0.268C472.655,104.884,472.615,104.897,472.576,104.897z"/>
		</g>
		<g>
			<path fill="#195C6B" d="M468.253,104.116c-0.04,0-0.079-0.014-0.113-0.039c-0.57-0.427-1.229-0.11-1.256-0.097
				c-0.097,0.049-0.212,0.008-0.259-0.086c-0.047-0.097-0.009-0.211,0.085-0.259c0.038-0.018,0.898-0.438,1.661,0.134
				c0.085,0.063,0.103,0.185,0.038,0.27C468.372,104.09,468.313,104.116,468.253,104.116z"/>
		</g>
		<path fill="#DE784E" d="M468.777,107.981c0,0-1.655,0.095-1.465,0.669c0.19,0.574,1.185,1.286,1.185,1.286
			S469.184,108.688,468.777,107.981z"/>
		<path fill="#DD8866" d="M476.43,111.49c-0.618,1.951-3.183,5.405-6.118,4.598c0,0,1.203,1.907-0.234,4.025
			c0,0,0.954,2.437,7.399-1.165c0,0-1.742-0.144-1.267-3.722c0.286-2.162,1.267-3.434,1.267-3.434
			C476.722,112.346,476.43,111.49,476.43,111.49z"/>
		<path fill="#195C6B" d="M481.744,110.865c-1.325,1.81-5.354,3.56-5.354,3.56c-0.464-1.791,0.524-2.455,0.524-2.455
			c1.033,0.093,2.388-2.424,1.945-3.216c-0.548-0.987-1.305-0.634-1.81-0.21c0,0-1.642-1.135-1.832-3.382
			c-0.065-0.772,1.276-2.965-1.292-3.913c-2.565-0.954-6.184,0.004-6.184,0.004s-0.931-2.396,2.055-3.537
			c3.626-1.388,11.206-0.862,12.901,4.223C483.616,104.694,483.31,108.723,481.744,110.865z"/>
		<path fill="#195C6B" d="M469.877,99.316c0,0,2.446,10.066,6.98,9.955c4.535-0.114,4.426,1.333,4.426,1.333
			S479.375,96.8,469.877,99.316z"/>
		<path fill="#FFFFFF" d="M468.26,111.49l2.327,0.574C470.586,112.064,468.894,112.906,468.26,111.49z"/>
	</g>
	<path fill="#F3A17B" d="M476.134,139.586l2.697,5.932c0,0,5.825-7.24,8.014-15.057c1.935-6.909-1.491-8.646-1.491-8.646
		c-2.618-0.961-4.401,2.772-6.975,10.321C476.963,136.29,476.134,139.586,476.134,139.586z"/>
	<path fill="#DD8866" d="M445.047,136.234c0,0,10.401,0.078,14.859,1.243c4.458,1.166,4.541,5.084,1.223,5.976
		c-3.318,0.893-15.406-4.72-15.406-4.72L445.047,136.234z"/>
	<path fill="#F3A17B" d="M478.832,145.518c0,0,0.103-4.822-2.248-5.78c-2.349-0.957-18.827-3.541-18.827-3.541l-1.548,1.783
		C456.208,137.979,472.388,147.307,478.832,145.518z"/>
	<g>
		<path fill="#F3A17B" d="M459.951,138.006c-0.114,1.16-2.488,1.048-2.488,1.048s-1.347,0.219-2.058,0.247
			c0,0,0.066,0.862-0.318,0.915c-0.391,0.052-0.558-1.379-0.558-1.379s-0.703,1.493-0.988,1.379
			c-0.28-0.113-0.226-1.606-0.226-1.606s-0.83,0-0.883,0.227c-0.026,0.106-0.166,0.51-0.344,0.862
			c-0.173,0.351-0.379,0.637-0.545,0.524c-0.332-0.226-0.167-1.997-0.167-1.997s-0.438,0-0.604,0.053
			c-0.166,0.059-0.558,1.327-1.107,0.558c0,0,0.072-1.274,1.107-2.051c0.504-0.378,2.429-0.962,3.538-1.049
			c1.62-0.119,3.782,0.232,4.187,0.445C458.902,136.399,460.063,136.844,459.951,138.006z"/>
		<path fill="#DD8866" d="M454.532,138.833c0,0-0.173-0.906,0.28-1.068c0.453-0.162,1.282-0.287,1.282-0.287
			s-0.991,0.005-1.594,0.21c-0.603,0.205-0.39,1.935-0.39,1.935L454.532,138.833z"/>
		<path fill="#DD8866" d="M454.311,137.069c-0.12,0.035-0.611,0.193-0.77,0.412c-0.186,0.246-0.226,1.128-0.226,1.128
			s-0.83,0-0.883,0.227c-0.026,0.106-0.166,0.51-0.344,0.862c0.012-0.152,0.093-1.321,0.484-1.931
			C452.95,137.163,454.118,137.076,454.311,137.069z"/>
		<path fill="#DD8866" d="M452.432,137.063c0,0-0.942,0.578-1.056,1.162c0,0-0.438,0-0.604,0.053
			C451.245,137.089,452.432,137.063,452.432,137.063z"/>
		<path fill="#DD8866" d="M459.951,138.006c-0.114,1.16-2.488,1.048-2.488,1.048s-1.347,0.219-2.058,0.247
			c-0.1-0.333,0.12-0.479,0.146-0.75c0,0,1.002,0.02,1.194-0.167c0,0,0.936,0.167,1.354-0.105
			C458.511,138.006,459.288,138.974,459.951,138.006z"/>
	</g>
	<g>
		<path fill="#DD8866" d="M438.269,137.666v0.953h6.691l0.871-1.561c0,0-3.069-0.913-5.792-0.096c0,0-1.148,0.405-1.327,0.659
			C438.711,137.621,438.517,137.454,438.269,137.666z"/>
		<path fill="#F3A17B" d="M446.605,137.955c-0.286,0.465-1.061,1.109-1.953,0.976c-0.893-0.131-1.944,0.008-1.944,0.008
			s-0.255-0.375,0.382-0.525c0.637-0.15,1.658-0.686,1.689-1.105l-1.784-0.268c0,0-0.893,0.077-1.275,0.268
			c-0.382,0.19-0.478,0.86-0.924,1.251c-0.446,0.392-0.701,0.231-0.701,0.231s0.288-1.103,0.538-1.401
			c0.093-0.11,0.45-0.349,0.45-0.349s-0.733,0.073-0.988,0.534c-0.255,0.46-0.247,0.745-0.351,0.985
			c-0.072,0.17-0.35,0.48-0.637,0.379c0,0,0.255-1.172,0.35-1.63c0,0-0.43,1.365-0.542,1.482c-0.217,0.223-0.381-0.035-0.287-1.217
			c0,0-0.255,0.518-0.223,0.985c0,0-0.351,0.232-0.383-0.146c-0.031-0.38-0.095-1.105,0.67-1.105c0,0,0.446-0.878,1.115-0.573
			c0,0,1.052-0.573,1.593-0.688c0.543-0.113,1.275,0,1.275,0S447.846,135.939,446.605,137.955z"/>
	</g>
	<path fill="#D14F4E" d="M467.606,118.785c0,0-5.125,1.87-6.257,9.26c-1.134,7.39,0.989,8.152,0.989,8.152s-0.178-2.18,1.116-1.35
		c1.295,0.829,0.797,1.306,1.71,1.149c0.913-0.154,1.095,0.626,1.095,0.626s0.724,0.611-0.144-3.03
		c-0.868-3.64-0.402-9.614,1.645-10.816C469.81,121.575,467.606,118.785,467.606,118.785z"/>
	<path fill="#E66462" d="M479.071,115.687c0,0-6.921,4.645-10.166,2.487c-3.244-2.157-1.3,1.742-1.3,1.742s-2.446,2.487-0.578,4.563
		c1.869,2.072,6.182,2.819,9.915,0c3.732-2.821,7.089-3.872,7.089-3.872s-1.142-1.233-2.748-1.958
		C479.68,117.925,482.527,115.604,479.071,115.687z"/>
	<path fill="#11393D" d="M461.415,224.198c0,0,0.915-3.862,0-6.709c-0.915-2.847,0.61-3.66-0.609-4.066
		c-1.221-0.407-3.062,1.118-3.87,2.847c0,0,0.311-3.355-1.926-3.355c-2.237,0-0.508,3.152-0.712,4.168
		c-0.203,1.018-2.135,4.067-3.355,4.475c-1.219,0.405-2.337,0.712-2.135,2.642H461.415z"/>
	<path fill="#11393D" d="M438.826,214.989c0,0,0.915-3.863,0-6.71c-0.916-2.846,0.61-3.66-0.61-4.065
		c-1.22-0.406-3.061,1.117-3.869,2.845c0,0,0.311-3.354-1.926-3.354c-2.236,0-0.508,3.151-0.711,4.168
		c-0.204,1.017-2.135,4.066-3.355,4.473c-1.22,0.408-2.339,0.712-2.135,2.644H438.826z"/>
</g>
<g>
	<path fill="#11393D" d="M140.005,78.64c0,0-4.545-1.357-8.084-0.639c-3.54,0.719-2.489,5.143-2.489,5.143l7.907-0.264l3.997,0.264
		L140.005,78.64z"/>
	<path fill="#11393D" d="M150.956,83.618c4.035,5.563,7.574,28.05,7.574,28.05l12.503-10.294l2.944,1.692
		c0,0-9.917,15.476-15.447,18.351c-5.53,2.876-10.618-10.945-10.618-10.945L150.956,83.618z"/>
	<path fill="#11393D" d="M129.499,224.198v-1.55c0-1.786,1.667-5.027,1.667-6.217c0-1.192,4.607,0.967,4.607,0.967
		s0.037,1.797,1.585,3.464c1.181,1.272,1.183,2.903,1.118,3.336H129.499z"/>
	<path fill="#11393D" d="M160.95,224.198l-0.798-0.371l-0.372,0.371h-3.042c-0.302-0.874-1.332-4.2-0.403-6.508
		c1.078-2.675,4.413-1.961,4.413-1.961s2.262,3.157,3.572,3.722c1.31,0.564,6.311,2.589,6.906,3.898
		c0.178,0.392-0.125,0.656-0.038,0.849H160.95z"/>
	<path fill="#4B9FA3" d="M150.736,124.49c1.727,25.036,6.442,57.848,11.557,92.361c0,0-1.003,1.633-6.693,0.778l-17.521-73.286
		c-0.075-0.195-0.262-0.324-0.471-0.324c-0.271,0-0.494,0.212-0.503,0.483c-0.202,5.523-1.974,22.42-1.022,73.361
		c0,0-2.99,1.643-6.18,0c0,0-11.296-75.344-8.695-89.77L150.736,124.49z"/>
	<path fill="#FFFFFF" d="M152.283,99.734c0,0.445-0.006,0.896-0.006,1.354c-0.013,1.18-0.027,2.389-0.053,3.603
		c0,0.451-0.013,0.91-0.026,1.36c-0.02,1.314-0.053,2.634-0.093,3.942c-0.014,0.465-0.027,0.929-0.04,1.387
		c-0.033,1.215-0.073,2.422-0.12,3.59c-0.012,0.464-0.033,0.93-0.045,1.38c-0.053,1.301-0.106,2.554-0.153,3.742
		c-0.021,0.472-0.04,0.938-0.066,1.388c-0.04,1.009-0.086,1.965-0.126,2.847c-0.026,0.491-0.046,0.961-0.073,1.407
		c-0.046,0.968-0.093,1.824-0.126,2.534c-0.033,0.61-0.067,1.115-0.086,1.507c-0.034,0.616-0.054,0.949-0.054,0.949
		s-3.616,3.888-11.585,5.149c-14.021,2.223-18.813-2.815-18.813-2.815s-0.072-0.742-0.186-2.043
		c-0.046-0.431-0.086-0.922-0.139-1.473c-0.086-0.989-0.193-2.15-0.313-3.444c-0.04-0.451-0.079-0.922-0.119-1.407
		c-0.106-1.128-0.212-2.342-0.318-3.609c-0.04-0.453-0.079-0.917-0.12-1.381c-0.105-1.233-0.212-2.514-0.325-3.815
		c-0.04-0.458-0.073-0.916-0.113-1.38c-0.086-1.062-0.172-2.143-0.266-3.218c-0.033-0.458-0.066-0.916-0.106-1.374
		c-0.77-9.774-1.38-19.316-1.022-21.061c0.624-3.026,4.745-6.881,10.617-8.521c1.5-0.418,3.105-0.69,4.798-0.77
		c2.289-0.106,4.446-0.126,6.423-0.02c5.069,0.265,8.998,1.333,11.094,3.802c0.087,0.086,0.159,0.179,0.232,0.272
		c0.179,0.232,0.332,0.617,0.472,1.148c0.125,0.478,0.231,1.068,0.324,1.751c0.061,0.412,0.107,0.856,0.153,1.334
		c0.1,0.961,0.172,2.057,0.226,3.245c0.02,0.431,0.04,0.882,0.053,1.34c0.033,0.962,0.059,1.97,0.073,3.026
		c0.006,0.445,0.013,0.89,0.02,1.348C152.283,97.756,152.283,98.74,152.283,99.734z"/>
	<g>
		<path fill="#F3A17B" d="M173.558,95.835c0,0-0.954,2.049-1.617,2.941c-0.663,0.893-1.856,3.592,0.425,4.798
			c2.281,1.207,6.956-2.01,6.956-2.01c1.518-1.493,1.003-3.211,1.003-3.211c0.73-0.653,0.276-2.236,0.276-2.236l0.788-1.497
			c-1.689-0.833-1.54,0.939-3.463,2.521c-0.465,0.382-1.747,0.663-2.364,0.909l-0.002-0.002c-0.835,0.334-1.583,0.511-1.583,0.511
			s0.001-0.002,0.001-0.006c0.014-0.109,0.175-1.581,0.105-2.328C174.006,95.451,173.558,95.835,173.558,95.835z"/>
		<path fill="#DD8866" d="M179.5,100.485c0,0,0.138-1.281-0.266-1.324c0,0-0.523,0.193-0.679,0.622
			c-0.156,0.427-0.021,1.125-0.978,1.827c-0.957,0.702-0.441-3.805-0.441-3.805c0.41,0.998,1.996-0.038,2.192-0.815
			c0.197-0.777,0.524-1.071,0.835-1.197c0.311-0.126,0.437,0.325,0.437,0.325s-0.263-0.047-0.485,0.104
			c-0.223,0.155-0.996,1.047-1.028,1.456c-0.034,0.41,0.123-0.397,0.493-0.231c0.37,0.167,0.473,0.541,0.473,0.541
			s-0.373-0.303-0.607,0.012c-0.234,0.314-0.319,0.94-0.319,0.94S180.269,98.721,179.5,100.485z"/>
		<path fill="#DD8866" d="M173.977,98.559c0,0,1.08,0.741,0.361,1.782c-0.722,1.041-0.015,1.625-0.015,1.625
			s1.929-2.204,1.239-3.916l-0.002-0.002C174.725,98.382,173.977,98.559,173.977,98.559z"/>
	</g>
	<path fill="#CDD0D0" d="M131.921,79.662c0,0-2.959,0.893-1.059,1.999c1.899,1.105,5.217,3.472,8.535,1.957
		C142.715,82.104,142.692,78.659,131.921,79.662z"/>
	<path fill="#1C4951" d="M141.557,79.472c0,0,4.433,0.643,4.005,16.812c-0.426,16.168,1.136,44.999,1.136,44.999l5.585-4.843
		l-0.618-18.647c0,0,2.624-27.013-0.709-34.175C150.956,83.616,148.098,79.67,141.557,79.472z"/>
	<path fill="#11393D" d="M138.666,78.443c0,0,6.222,0.138,10.618,7.327l-2.182,3.457l2.597,7.051l-4.136,10.446
		c0,0,0.817-24.198-6.896-26.985V78.443z"/>
	<g>
		<path fill="#F3A17B" d="M145.561,70.514c-0.119,0.465-0.252,0.916-0.411,1.367c-0.186,0.584-0.398,1.141-0.637,1.672
			c-0.531,1.274-1.142,2.362-1.725,3.013c-1.553,1.738-5.455,1.579-8.042-0.704c-1.712-1.513-2.84-3.941-2.349-7.365
			c1.234-8.6,6.676-9.237,12.449-5.455C146.503,64.13,146.383,67.395,145.561,70.514z"/>
		<path fill="#50453B" d="M146.157,65.189c0,0-2.975-3.572-8.931-3.161c0,0-2.227,4.557-3.007,6.654c0,0-2.263,0.299-1.142,5.031
			c0,0-2.685-0.8-1.779-8.25c0.786-6.457,4.75-5.331,4.75-5.331s1.654-2.769,6.049-2.01
			C146.634,58.906,148.433,63.063,146.157,65.189z"/>
		
			<ellipse transform="matrix(-0.9745 -0.2243 0.2243 -0.9745 261.1926 165.6413)" fill="#1C4951" cx="140.005" cy="67.985" rx="0.487" ry="0.876"/>
		
			<ellipse transform="matrix(-0.9747 -0.2236 0.2236 -0.9747 269.3129 169.1563)" fill="#1C4951" cx="144.232" cy="69.332" rx="0.486" ry="0.874"/>
		<path fill="#726659" d="M144.512,73.553c-0.531,1.274-1.142,2.362-1.725,3.013c-1.553,1.738-5.455,1.579-8.042-0.704
			c-0.69-1.885-0.889-4.299-0.531-7.18l0.279-0.703c0,0,0.08,2.335,3.065,3.583C139.801,72.491,143.026,73.235,144.512,73.553z"/>
		<path fill="#DE784E" d="M142.803,69.781c0,0,0.575,2.031,1.478,1.944c0.902-0.087-0.185,1.764-2.355,0.553
			C141.925,72.278,141.577,71.035,142.803,69.781z"/>
		
			<ellipse transform="matrix(-0.8624 -0.5062 0.5062 -0.8624 222.147 199.1509)" fill="#ED7D66" cx="138.141" cy="69.383" rx="0.899" ry="0.719"/>
		<path fill="#ED7D66" d="M144.271,71.212c0.014,0.383,0.406,0.676,0.882,0.672c0.151-0.448,0.288-0.904,0.409-1.366
			c-0.132-0.051-0.277-0.072-0.429-0.067C144.637,70.476,144.251,70.817,144.271,71.212z"/>
		<g>
			<path fill="#50453B" d="M139.565,65.292c-0.054-0.013-0.102-0.05-0.128-0.103c-0.047-0.097-0.007-0.213,0.09-0.26
				c0.858-0.417,1.867-0.009,1.91,0.008c0.099,0.042,0.146,0.155,0.105,0.254c-0.04,0.1-0.153,0.147-0.253,0.106
				c-0.009-0.004-0.893-0.357-1.592-0.019C139.654,65.299,139.608,65.303,139.565,65.292z"/>
		</g>
		<g>
			<path fill="#50453B" d="M145.706,67.49c-0.097-0.024-0.161-0.12-0.145-0.221c0.054-0.314-0.553-0.543-0.77-0.598
				c-0.104-0.026-0.167-0.132-0.141-0.236c0.026-0.103,0.131-0.167,0.235-0.141c0,0,0.001,0,0.001,0
				c0.439,0.111,1.157,0.455,1.058,1.041c-0.018,0.105-0.119,0.177-0.224,0.159C145.715,67.492,145.71,67.491,145.706,67.49z"/>
		</g>
		<path fill="#F3A17B" d="M134.219,68.683c0,0-1.009-1.927-2.51-1.23c-1.501,0.697-0.034,4.153,1.369,4.357
			C134.48,72.014,134.219,68.683,134.219,68.683z"/>
		<path fill="#FFFFFF" d="M142.537,74.075l-3.12-0.361c0,0-0.481,1.688,1.071,2.021C142.039,76.065,142.537,74.075,142.537,74.075z"
			/>
	</g>
	<path fill="#DD8866" d="M139.795,77.742c0,0-0.941,2.315,0.154,4.053c0,0-3.479,2.84-8.029-0.672c0,0,2.325-5.61,0.186-9.565
		c0,0,0.532,0.027,1.375,0.12C133.481,71.678,134.464,77.742,139.795,77.742z"/>
	<path fill="#1C4951" d="M130.225,79.912c0,0,5.225,13.048,4.759,25.987c-0.465,12.939-3.369,35.383-3.369,35.383l-11.833-2.537
		l-0.678-25.226V86.181C119.105,86.181,122.696,80.799,130.225,79.912z"/>
	<g>
		<path fill="#DD8866" d="M118.637,145.614c0,0,0.812,1.237,1.008,1.831c0.235,0.714,0.1,2.464,0.1,2.464s-0.067,0.165-0.312,0.006
			c-0.381-0.248-0.04-1.188-0.628-1.47C118.216,148.163,118.637,145.614,118.637,145.614z"/>
		<path fill="#F3A17B" d="M114.432,143.534c0,0,3.153-0.38,3.857,0.496c0,0,0.538,2.584,0.826,3.412
			c0.316,0.91,0.146,4.085-0.34,4.638c-1.286,1.465-1.354,1.38-1.665,1.048c-0.31-0.334,0.776-1.138,0.857-1.599
			c0.041-0.229-0.274-1.299-0.274-1.299c0.01,0.468-0.218,1.214-0.715,1.51c-0.617,0.365-1.133,0.751-1.452,0.554
			c-0.575-0.354,0.879-1.185,0.771-1.587c-0.04-0.145-0.167-1.074-0.167-1.074c-0.154,0.267-0.167,0.739-0.359,0.959
			c-0.247,0.281-1.381,1.063-1.588,0.786c-0.324-0.433,0.727-1.104,0.733-1.525c0.003-0.168-0.146-0.898-0.146-0.898
			s-0.282,0.588-0.474,0.748c-0.222,0.185-1.238,0.667-1.301,0.435c-0.162-0.606,0.846-0.856,0.948-1.723
			c0.085-0.72-0.25-2.389,0.182-3.11C114.557,144.583,114.432,143.534,114.432,143.534z"/>
	</g>
	<path fill="#11393D" d="M119.426,85.77c0,0,3.961,6.993,3.569,11.584c-0.185,2.165-4.21,19.677-4.21,19.677
		s0.984,22.233-0.53,27.289c0,0-3.236-0.101-3.974-0.795c0,0-3.666-13.928-2.914-27.554
		C112.102,102.643,116.293,88.716,119.426,85.77z"/>
	<path fill="#11393D" d="M131.921,78c0,0-5.641,1.051-6.25,7.77l4.092,3.346l-0.968,5.916l6.099,12.923
		c0,0,1.339-9.228-3.228-23.845C131.667,84.11,130.922,78.906,131.921,78z"/>
</g>
<g>
	<path fill="none" stroke="#595A5C" stroke-width="2.25" stroke-linecap="round" stroke-miterlimit="10" d="M270.602,134.252
		l-14.347,47.594c-0.427,1.416-1.73,2.385-3.209,2.385h-15.271c-1.851,0-3.352,1.502-3.352,3.353v32.343
		c0,1.852,1.501,3.353,3.352,3.353h19.737h-44.968c-1.851,0-3.352-1.501-3.352-3.353v-32.343c0-1.851,1.501-3.353,3.352-3.353
		h15.271c1.479,0,2.783-0.969,3.209-2.385l13.905-46.129c1.035-3.435,4.198-5.784,7.785-5.784h14.679
		C269.64,129.932,271.25,132.1,270.602,134.252z"/>
	<path fill="#11393D" d="M240.378,161.287h19.509c1.579,0,2.973-1.036,3.424-2.548l6.556-21.726
		c0.438-1.459-0.663-2.934-2.176-2.934h-19.522c-1.579,0-2.959,1.036-3.424,2.55l-6.543,21.724
		C237.763,159.813,238.851,161.287,240.378,161.287z"/>
	<path fill="#4B9FA3" d="M240.376,161.287h16.855c1.58,0,2.973-1.036,3.424-2.548l6.556-21.726c0.438-1.459-0.664-2.934-2.176-2.934
		H248.18c-1.579,0-2.973,1.036-3.437,2.55l-6.543,21.724C237.762,159.813,238.85,161.287,240.376,161.287z"/>
	<path fill="#4B9FA3" d="M248.493,174.713h-35.629c-1.649,0-2.986,1.337-2.986,2.985v4.645h41.601v-4.645
		C251.479,176.05,250.142,174.713,248.493,174.713z"/>
	<path fill="#11393D" d="M252.006,179.544h-42.654c-0.741,0-1.34,0.6-1.34,1.339v1.775c0,0.74,0.6,1.341,1.34,1.341h42.654
		c0.74,0,1.34-0.601,1.34-1.341v-1.775C253.346,180.144,252.746,179.544,252.006,179.544z"/>
	<path fill="none" stroke="#808182" stroke-width="2.25" stroke-linecap="round" stroke-miterlimit="10" d="M252.713,129.932h14.679
		c2.248,0,3.858,2.168,3.209,4.32l-14.347,47.594c-0.427,1.416-1.73,2.385-3.209,2.385h-15.271c-1.851,0-3.352,1.502-3.352,3.353
		v32.343c0,1.852,1.501,3.353,3.352,3.353h19.737"/>
</g>
<g>
	<path fill="#D14F4E" d="M228.813,116.557c-5.29,1.657-8.252,7.285-14.446,14.493c0,0-4.209-8.922-7.084-18.301l-2.869,0.674
		c0,0,3.649,27.893,7.41,27.859c3.76-0.037,16.086-7.144,17.764-11.567S228.813,116.557,228.813,116.557z"/>
	<path fill="#11393D" d="M230.764,224.198l0.054-1.869c0.049-1.731-1.461-5.474-1.428-6.628c0.033-1.156-4.494,0.809-4.494,0.809
		s-0.102,2.295-1.65,3.868c-0.99,1.009-1.19,2.823-1.208,3.82H230.764z"/>
	<path fill="#11393D" d="M206.803,224.198c0.101-4.229-1.418-8.346-1.418-8.346s-4.014-1.994-4.918,1.205
		c-0.904,3.198-5.061,3.837-7.183,4.062c-1.547,0.164-1.759,2.19-1.761,3.079H206.803z"/>
	<path fill="#50453B" d="M244.957,160.818l-19.937-0.851c0,0-21.347,1.57-31.701,8.205c-4.189,2.687,5.847,48.979,5.847,48.979
		h7.642l-2.717-38.582c0,0,21.832-0.641,28.278-3.521C238.816,172.167,244.957,160.818,244.957,160.818z"/>
	<path fill="#726659" d="M223.78,217.151c0,0-2.851-49.465-0.149-51.707c2.702-2.24,29.243-5.763,29.243-5.763
		s-0.054,13.439-7.171,17.607c-7.117,4.166-12.034,5.143-12.034,5.143l-3.402,34.72H223.78z"/>
	<path fill="#E66462" d="M252.809,161.137c0.841-9.24,4.36-35.608,4.109-36.909c-0.794-4.107-7.162-9.635-15.628-10.06
		c-0.925-0.046-1.799-0.066-2.625-0.053c-6.759,0.073-10.458,1.983-13.003,5.528c-0.732,1.021-1.932,4.486-2.197,9.189
		c-0.998,17.692,1.555,31.135,1.555,31.135C229.909,164.914,252.809,161.137,252.809,161.137z"/>
	<path fill="#DD8866" d="M235.519,109.243c0,0,0.61,7.313,2.191,9.009c0,0,1.13-2.207,6.264-2.875c0,0-1.913-5.177-0.354-9.396
		c0,0-1.888,0.216-2.263-0.57C241.357,105.412,241.463,108.718,235.519,109.243z"/>
	<path fill="#D14F4E" d="M240.525,120.061l-0.791-1.811c-3.61,0.265-4.684-1.487-4.684-1.487l-1.128,1.487
		c0.219-3.524,2.196-4.572,2.196-4.572c0.093,1.208,0.597,1.699,0.597,1.699l0.849,1.857l1.586-1.606
		c1.905,0.372,4.294-2.109,4.294-2.109l1.374,1.208C245.282,117.633,240.525,120.061,240.525,120.061z"/>
	<path fill="#E66462" d="M239.734,118.25c-3.588,1.11-4.684-1.487-4.684-1.487c0.524-1.255,1.214-1.135,1.214-1.135l1.066,2.989
		l1.674-1.828L239.734,118.25z"/>
	<path fill="#D14F4E" d="M237.889,117.889c0,0-0.684,2.158-1.432,5.493c-0.755,3.33-1.554,7.82-2.099,12.347
		c-0.27,2.264-0.478,4.534-0.637,6.667c-0.063,1.066-0.123,2.099-0.18,3.076c-0.067,0.978-0.07,1.905-0.103,2.761
		c-0.07,1.709-0.055,3.135-0.061,4.133c-0.002,0.999-0.004,1.569-0.004,1.569s-0.009-0.57-0.024-1.568
		c-0.013-0.998-0.053-2.425-0.015-4.136c0.018-0.856,0.003-1.785,0.053-2.765c0.04-0.98,0.081-2.014,0.124-3.085
		c0.121-2.137,0.288-4.415,0.517-6.688c0.463-4.547,1.183-9.067,1.881-12.428c0.69-3.36,1.345-5.569,1.345-5.569L237.889,117.889z"
		/>
	<path fill="#D14F4E" d="M238.759,128.498l5.215,0.858l-1.161,6.717l-5.143-0.726C237.67,135.348,238.178,129.963,238.759,128.498z"
		/>
	<g>
		<path fill="#F3A17B" d="M239.561,141.616c-0.113,1.161-2.488,1.049-2.488,1.049s-1.347,0.218-2.057,0.245
			c0,0,0.066,0.862-0.319,0.915c-0.392,0.054-0.558-1.379-0.558-1.379s-0.703,1.492-0.989,1.379
			c-0.279-0.112-0.226-1.605-0.226-1.605s-0.829,0-0.882,0.226c-0.026,0.105-0.166,0.511-0.345,0.862
			c-0.173,0.352-0.379,0.637-0.544,0.524c-0.332-0.227-0.166-1.997-0.166-1.997s-0.438,0-0.604,0.053
			c-0.166,0.06-0.557,1.327-1.108,0.558c0,0,0.073-1.275,1.108-2.051c0.504-0.379,2.429-0.962,3.537-1.048
			c1.619-0.12,3.782,0.232,4.187,0.444C238.512,140.01,239.673,140.454,239.561,141.616z"/>
		<path fill="#DD8866" d="M234.142,142.444c0,0-0.172-0.906,0.28-1.068c0.453-0.163,1.282-0.287,1.282-0.287
			s-0.99,0.004-1.594,0.208c-0.604,0.206-0.39,1.935-0.39,1.935L234.142,142.444z"/>
		<path fill="#DD8866" d="M233.92,140.68c-0.12,0.033-0.61,0.192-0.77,0.412c-0.186,0.246-0.226,1.128-0.226,1.128
			s-0.829,0-0.882,0.226c-0.026,0.105-0.166,0.511-0.345,0.862c0.013-0.152,0.093-1.32,0.484-1.931
			C232.56,140.773,233.728,140.687,233.92,140.68z"/>
		<path fill="#DD8866" d="M232.042,140.673c0,0-0.942,0.578-1.055,1.163c0,0-0.438,0-0.604,0.053
			C230.855,140.701,232.042,140.673,232.042,140.673z"/>
		<path fill="#DD8866" d="M239.561,141.616c-0.113,1.161-2.488,1.049-2.488,1.049s-1.347,0.218-2.057,0.245
			c-0.1-0.333,0.119-0.478,0.146-0.75c0,0,1.002,0.02,1.195-0.166c0,0,0.935,0.166,1.354-0.106
			C238.121,141.616,238.897,142.585,239.561,141.616z"/>
	</g>
	<g>
		<path fill="#F3A17B" d="M244.793,104.906c-3.529,7.947-12.454,5.12-13.091,1.299c-0.204-1.223-0.014-3.199,0.482-5.223
			c0.111-0.46,0.237-0.92,0.379-1.375c0.963-3.085,2.597-5.908,4.582-5.947C244.058,93.525,248.321,96.96,244.793,104.906z"/>
		<path fill="#195C6B" d="M234.896,94.779c0,0,4.42-1.443,9.245,2.074c0,0-0.54,5.042-0.994,7.234c0,0,1.758,1.456-1.709,4.868
			c0,0,2.7,0.75,5.895-6.039c2.77-5.886-1.186-7.041-1.186-7.041s-0.7-3.208-6.063-4.867
			C235.683,89.648,233.396,91.991,234.896,94.779z"/>
		
			<ellipse transform="matrix(0.9443 0.329 -0.329 0.9443 46.3229 -72.9166)" fill="#1C4951" cx="238.618" cy="100.418" rx="0.486" ry="0.876"/>
		
			<ellipse transform="matrix(0.9444 0.3289 -0.3289 0.9444 45.6911 -71.5335)" fill="#1C4951" cx="234.322" cy="99.311" rx="0.486" ry="0.874"/>
		<path fill="#DE784E" d="M235.294,100.451c0,0-1.568,1.414-2.287,0.86c-0.718-0.554-0.781,1.592,1.701,1.722
			C234.709,103.033,235.665,102.165,235.294,100.451z"/>
		<path fill="#FFFFFF" d="M233.125,104.458c0,0,3.428,0.792,3.693,1.357c0.316,0.673-0.341,0.881-1.66,0.538
			C233.319,105.875,233.125,104.458,233.125,104.458z"/>
		
			<ellipse transform="matrix(0.9995 0.0304 -0.0304 0.9995 3.23 -7.2329)" fill="#ED7D66" cx="239.453" cy="102.594" rx="0.899" ry="0.72"/>
		<path fill="#ED7D66" d="M233.288,100.883c-0.215,0.316-0.703,0.355-1.104,0.099c0.111-0.46,0.237-0.92,0.379-1.375
			c0.14,0.028,0.273,0.086,0.4,0.172C233.371,100.063,233.516,100.559,233.288,100.883z"/>
		<g>
			<path fill="#195C6B" d="M240.422,98.372c0.053,0.019,0.113,0.012,0.164-0.019c0.092-0.058,0.12-0.178,0.063-0.269
				c-0.505-0.807-1.576-1-1.622-1.008c-0.106-0.018-0.207,0.053-0.225,0.158c-0.019,0.105,0.052,0.207,0.158,0.226
				c0.01,0.002,0.945,0.172,1.358,0.831C240.344,98.331,240.381,98.358,240.422,98.372z"/>
		</g>
		<g>
			<path fill="#195C6B" d="M234.054,96.967c0.095,0.031,0.2-0.016,0.24-0.109c0.123-0.294,0.757-0.167,0.969-0.098
				c0.103,0.033,0.213-0.023,0.245-0.125c0.033-0.102-0.022-0.211-0.124-0.244c0,0-0.001-0.001-0.001-0.001
				c-0.431-0.14-1.221-0.23-1.449,0.318c-0.042,0.099,0.006,0.212,0.104,0.253C234.045,96.964,234.049,96.965,234.054,96.967z"/>
		</g>
		<path fill="#F3A17B" d="M243.146,104.087c0,0,1.88-1.095,2.78,0.294s-2.18,3.535-3.477,2.961
			C241.153,106.769,243.146,104.087,243.146,104.087z"/>
		<path fill="#195C6B" d="M236.897,90.929c-1.987-0.049-3.616,2.721-1.847,4.379l0.33-0.648l1.273,1.146l-0.055-0.94l3.485,1.764
			l-0.336-1.045c0,0,2.646,1.375,4.394,1.268C245.887,96.747,240.957,91.027,236.897,90.929z"/>
	</g>
	<path fill="#D14F4E" d="M254.033,119.524c-5.879-0.311-2.747,7.993,2.25,15.82l-19.052,4.733l0.34,2.393
		c0,0,27.648,0.754,31.143-1.637c1.887-1.292-4.887-11.09-9.362-16.438C255.538,119.838,254.033,119.524,254.033,119.524z"/>
	<g>
		<path fill="#F3A17B" d="M204.705,108.151c0,0,0.954,2.05,1.617,2.942c0.663,0.893,1.856,3.592-0.425,4.798
			c-2.281,1.207-6.956-2.01-6.956-2.01c-1.518-1.493-1.003-3.212-1.003-3.212c-0.73-0.653-0.277-2.236-0.277-2.236l-0.788-1.498
			c1.689-0.833,1.54,0.939,3.463,2.522c0.465,0.381,1.747,0.661,2.363,0.907l0.002-0.001c0.835,0.334,1.583,0.512,1.583,0.512
			s-0.002-0.002-0.001-0.006c-0.014-0.11-0.175-1.582-0.105-2.328C204.256,107.768,204.705,108.151,204.705,108.151z"/>
		<path fill="#DD8866" d="M198.763,112.801c0,0-0.137-1.281,0.266-1.323c0,0,0.524,0.192,0.679,0.621
			c0.156,0.428,0.021,1.125,0.978,1.827c0.957,0.701,0.441-3.805,0.441-3.805c-0.409,0.999-1.995-0.038-2.191-0.815
			c-0.198-0.778-0.525-1.07-0.836-1.197c-0.311-0.125-0.437,0.325-0.437,0.325s0.262-0.046,0.485,0.106
			c0.223,0.153,0.996,1.046,1.028,1.456c0.034,0.41-0.122-0.398-0.492-0.231c-0.371,0.167-0.473,0.54-0.473,0.54
			s0.373-0.302,0.606,0.012c0.235,0.315,0.32,0.941,0.32,0.941S197.994,111.037,198.763,112.801z"/>
		<path fill="#DD8866" d="M204.286,110.876c0,0-1.08,0.74-0.361,1.78c0.722,1.042,0.015,1.625,0.015,1.625s-1.929-2.204-1.24-3.917
			l0.002-0.001C203.538,110.698,204.286,110.876,204.286,110.876z"/>
	</g>
</g>
<g>
	<path fill="none" stroke="#595A5C" stroke-width="2.25" stroke-linecap="round" stroke-miterlimit="10" d="M150.349,149.208v72.544
		c0,0.842,0.683,1.526,1.526,1.526h38.724c0.842,0,1.526-0.685,1.526-1.526v-72.544c0-0.843,0.683-1.526,1.526-1.526H535.87
		c0.843,0,1.525,0.684,1.525,1.526v72.544c0,0.842-0.683,1.526-1.525,1.526h-38.724c-0.843,0-1.526-0.685-1.526-1.526v-72.544
		c0-0.843-0.684-1.526-1.525-1.526h-342.22C151.032,147.681,150.349,148.365,150.349,149.208z"/>
	<path fill="none" stroke="#808182" stroke-width="2.25" stroke-linecap="round" stroke-miterlimit="10" d="M535.87,147.681
		c0.843,0,1.525,0.684,1.525,1.526v72.544c0,0.842-0.683,1.526-1.525,1.526h-38.724c-0.843,0-1.526-0.685-1.526-1.526v-72.544
		c0-0.843-0.684-1.526-1.525-1.526h-342.22c-0.843,0-1.526,0.684-1.526,1.526v72.544c0,0.842,0.683,1.526,1.526,1.526"/>
	<g>
		<path fill="#CDD0D0" d="M498.095,146.652H147.439c-0.409,0-0.741-0.333-0.741-0.742v-3.042h351.397V146.652z"/>
		<path fill="#B9BABC" d="M541.047,141.933h-42.952v4.719h42.209c0.409,0,0.742-0.333,0.742-0.742V141.933z"/>
	</g>
	<g>
		<path fill="#FFFFFF" d="M503.694,140.833H144.568c-0.392,0-0.708,0.316-0.708,0.708v2.111c0,0.392,0.316,0.708,0.708,0.708
			h359.126V140.833z"/>
		<path fill="#E3E4E5" d="M543.063,140.833h-46.584c-0.392,0-0.708,0.316-0.708,0.708v2.111c0,0.392,0.316,0.708,0.708,0.708h46.584
			c0.454,0,0.823-0.369,0.823-0.824v-1.88C543.886,141.201,543.517,140.833,543.063,140.833z"/>
	</g>
</g>
<g>
	<path fill="#50453B" d="M443.936,140.833v-2.479l11.674,1.104c0.422,0.041,0.746,0.395,0.746,0.819v0.557H443.936z"/>
	<path fill="#726659" d="M443.936,138.354h-19.485c-0.454,0-0.822,0.368-0.822,0.822v1.657h20.307V138.354z"/>
</g>
<g>
	<path fill="#726659" d="M447.739,129.839h-34.412c-1.069,0-2.013-0.86-2.107-1.923l-2.314-26.085
		c-0.094-1.061,0.698-1.921,1.767-1.921h34.412c1.07,0,2.013,0.86,2.108,1.921l2.313,26.085
		C449.601,128.979,448.809,129.839,447.739,129.839z"/>
	<path fill="#50453B" d="M446.412,129.839H412c-1.07,0-2.014-0.86-2.107-1.923l-2.314-26.085c-0.094-1.061,0.697-1.921,1.767-1.921
		h34.412c1.07,0,2.014,0.86,2.107,1.921l2.314,26.085C448.273,128.979,447.481,129.839,446.412,129.839z"/>
	<path fill="#50453B" d="M415.653,140.833h18.745l-1.407-1.456c-0.19-0.198-0.443-0.32-0.715-0.35l-7.25-0.784l5.558-10.784
		l-1.377-8.269h-6.731l-3.087,19.061l-2.583,0.654c-0.405,0.102-0.725,0.414-0.839,0.816L415.653,140.833z"/>
	<path fill="#726659" d="M418.97,140.833l3.352-20.695c0.088-0.545,0.559-0.946,1.111-0.946h4.244c0.759,0,1.301,0.735,1.075,1.46
		l-6.277,20.181H418.97z"/>
</g>
<g>
	<path fill="#50453B" d="M380.015,140.833H361.27l1.408-1.456c0.19-0.197,0.443-0.32,0.715-0.35l7.25-0.784l-5.558-10.784
		l1.377-8.269h6.731l3.086,19.061l2.583,0.654c0.406,0.102,0.725,0.414,0.839,0.816L380.015,140.833z"/>
	<polygon fill="#726659" points="371.887,127.405 373.987,138.19 370.643,138.245 365.085,127.461 	"/>
	<path fill="#726659" d="M349.257,129.839h34.412c1.07,0,2.014-0.86,2.108-1.923l2.313-26.085c0.093-1.061-0.697-1.921-1.767-1.921
		h-34.412c-1.071,0-2.014,0.86-2.108,1.921l-2.313,26.085C347.396,128.979,348.187,129.839,349.257,129.839z"/>
	<path fill="#50453B" d="M347.929,129.839h34.413c1.07,0,2.013-0.86,2.107-1.923l2.314-26.085c0.093-1.061-0.698-1.921-1.767-1.921
		h-34.412c-1.071,0-2.014,0.86-2.108,1.921l-2.313,26.085C346.068,128.979,346.859,129.839,347.929,129.839z"/>
	<polygon fill="#C0E7F2" points="383.422,128.487 347.069,128.487 349.501,101.26 385.856,101.26 	"/>
</g>
<g>
	<path fill="#DD8866" d="M308.951,175.537l4.739-11.646c10.502-2.104,14.815,2.463,17.654,2.513c4.557,0.08,4.97,7.826,3.96,12.609
		c-0.512,2.422-9.38,34.986-9.021,36.601c0.437,1.962,3.419,5.747,4.525,6.641c0.006,0.005,0.011,0.005,0.028,0.01
		c0.138,0.036,0.841,0.248,1.471,0.78c0.189,0.156,0.363,0.358,0.525,0.582h-6.035c-0.313-0.307-0.709-0.783-1.173-1.526
		c-0.949-1.522-2.78-1.18-2.78-1.18c-0.567,0.494-0.658,2.749-0.672,3.278h-0.709c-0.247-0.632-1.11-3.54-0.849-4.628
		c0.217-0.875,0.901-2.891,1.154-3.869c1.344-5.203,2.45-6.555,3.291-20.821c0.46-7.797,0-13.683,3.226-17.61
		C328.284,177.27,316.094,178.212,308.951,175.537z"/>
	<path fill="#184453" d="M326.798,224.198c-0.608,0-1.783-1.268-2.606-1.906c-0.772-0.6-1.216-0.571-1.216-0.571
		c-0.566,0.494-0.789,1.948-0.803,2.478h-0.709c-0.247-0.632-1.11-3.54-0.849-4.628c0.217-0.875,0.721-2.082,0.875-3.74
		c2.222-1.266,4.128,3.013,6.989,5.422c1.438,1.211,2.331,1.002,2.331,1.002s0.011,0.005,0.028,0.01
		c0.12,0.07,0.98,0.136,1.77,0.552c1.191,0.716,1.21,1.16,1.372,1.383H326.798z"/>
	<path fill="#F3A17B" d="M313.599,175.537l4.739-11.646c10.503-2.104,14.815,2.463,17.654,2.513c4.556,0.08,4.97,7.826,3.96,12.609
		c-0.512,2.422-0.748,34.986-0.389,36.601c0.436,1.962,3.419,5.747,4.524,6.641c0.007,0.005,0.013,0.005,0.029,0.01
		c0.137,0.036,0.842,0.248,1.471,0.78c0.189,0.156,0.365,0.358,0.526,0.582h-6.035c-0.313-0.307-0.709-0.783-1.173-1.526
		c-0.949-1.522-2.779-1.18-2.779-1.18c-0.567,0.494-0.657,2.749-0.672,3.278h-0.709c-0.248-0.632-1.111-3.54-0.85-4.628
		c0.217-0.875,0.902-2.891,1.154-3.869c1.345-5.203-1.543-15.673-2.684-20.821c-0.956-4.308-2.657-13.683,0.569-17.61
		C332.932,177.27,320.742,178.212,313.599,175.537z"/>
	<path fill="#184453" d="M340.077,224.198c-0.608,0-1.781-1.268-2.606-1.906c-0.771-0.6-1.215-0.571-1.215-0.571
		c-0.567,0.494-0.788,1.948-0.803,2.478h-0.709c-0.248-0.632-1.111-3.54-0.85-4.628c0.217-0.875,0.721-2.082,0.875-3.74
		c2.222-1.266,4.129,3.013,6.989,5.422c1.438,1.211,2.33,1.002,2.33,1.002s0.013,0.005,0.029,0.01c0.12,0.07,0.98,0.136,1.77,0.552
		c1.192,0.716,1.21,1.16,1.372,1.383H340.077z"/>
	<path fill="#184453" d="M299.85,152.718c0,0-8.875,11.272-6.995,19.346c1.879,8.073,37.38,6.039,37.38,6.039
		s5.388-4.736,6.621-11.58c0,0-12.261-4.855-20.002-7.066c0,0,0.477-2.833-0.646-7.5C315.084,147.291,299.85,152.718,299.85,152.718
		z"/>
	<path fill="#C18DB7" d="M292.604,169.968c0,0,27.33,7.68,33.566-7.451c0,0-3.921-6.109-0.596-7.505
		c17.252-7.248,16.863-27.444,9.517-29.455c-7.346-2.011-21.896-3.788-24.108,1.84C308.77,133.027,278.502,162.564,292.604,169.968z
		"/>
	<path fill="#A673A0" d="M336.485,126.373c-5.605-0.661-3.022,15.761,0,19.665c0,0,7.336-1.19,17.456-2.181
		c10.119-0.989,11.725-0.337,12.719-4.159c0.995-3.822-8.903-5.161-14.046-7.411C347.471,130.036,340.596,126.856,336.485,126.373z"
		/>
	<path fill="#50453B" d="M307.6,133.986c0,0-1.518-5.068,1.889-8.82c3.406-3.754,11.92-2.009,14.708-6.055
		c2.787-4.046,2.056-10.194,12.484-9.132c10.43,1.062,7.089,12.657,9.998,16.734c2.909,4.078,1.146,4.609-3.159,3.525
		c0,0,2.34,0.345,2.346-0.602c0.006-0.947,0.006-0.947,0.006-0.947s-0.774,1.97-5.883-0.021s-7.758-3.128-11.233-0.469
		c-3.475,2.659-0.675,6.565-1.456,9.412c-0.78,2.846-3.567,2.791-3.567,2.791s2.885-1.678,1.675-3.985
		c-1.211-2.307-0.901-5.625-0.901-5.625s-3.687,0.418-3.16,3.648c0.527,3.231-0.556,4.564-5.666,5.059
		c-5.108,0.495-6.843-2.48-6.843-2.48s0.805,2.975,2.818,3.594C311.656,140.61,307.497,139.662,307.6,133.986z"/>
</g>
<g>
	<path fill="none" stroke="#595A5C" stroke-width="2.25" stroke-linecap="round" stroke-miterlimit="10" d="M267.702,134.252
		l14.347,47.594c0.427,1.416,1.73,2.385,3.21,2.385h15.271c1.852,0,3.352,1.502,3.352,3.353v32.343c0,1.852-1.5,3.353-3.352,3.353
		h-19.736h44.968c1.851,0,3.351-1.501,3.351-3.353v-32.343c0-1.851-1.5-3.353-3.351-3.353h-15.272c-1.478,0-2.782-0.969-3.208-2.385
		l-13.907-46.129c-1.035-3.435-4.197-5.784-7.784-5.784h-14.68C268.664,129.932,267.053,132.1,267.702,134.252z"/>
	<path fill="#4B9FA3" d="M297.925,161.287h-19.508c-1.58,0-2.973-1.036-3.424-2.548l-6.557-21.726
		c-0.438-1.459,0.664-2.934,2.176-2.934h19.522c1.58,0,2.959,1.036,3.424,2.55l6.543,21.724
		C300.539,159.813,299.452,161.287,297.925,161.287z"/>
	<path fill="#11393D" d="M295.271,161.287h-16.854c-1.58,0-2.973-1.036-3.424-2.548l-6.557-21.726
		c-0.438-1.459,0.664-2.934,2.176-2.934h16.855c1.579,0,2.972,1.036,3.437,2.55l6.542,21.724
		C297.886,159.813,296.797,161.287,295.271,161.287z"/>
	<path fill="#4B9FA3" d="M289.81,174.713h35.628c1.649,0,2.986,1.337,2.986,2.985v4.645h-41.6v-4.645
		C286.824,176.05,288.161,174.713,289.81,174.713z"/>
	<path fill="#11393D" d="M286.297,179.544h42.655c0.741,0,1.34,0.6,1.34,1.339v1.775c0,0.74-0.6,1.341-1.34,1.341h-42.655
		c-0.74,0-1.34-0.601-1.34-1.341v-1.775C284.957,180.144,285.557,179.544,286.297,179.544z"/>
	
		<path fill="none" stroke="#808182" stroke-width="2.25" stroke-linecap="round" stroke-linejoin="round" stroke-miterlimit="10" d="
		M280.793,223.278h44.968c1.851,0,3.351-1.501,3.351-3.353v-32.343c0-1.851-1.5-3.353-3.351-3.353h-15.272
		c-1.478,0-2.782-0.969-3.208-2.385l-13.907-46.129c-1.035-3.435-4.197-5.784-7.784-5.784h-14.68"/>
</g>
<g>
	<path fill="#50453B" d="M222.609,140.833v-2.479l11.674,1.104c0.422,0.041,0.745,0.395,0.745,0.819v0.557H222.609z"/>
	<path fill="#726659" d="M222.609,138.354h-19.486c-0.454,0-0.821,0.368-0.821,0.822v1.657h20.307V138.354z"/>
</g>
<g>
	<path fill="#726659" d="M217.559,129.839h-34.412c-1.069,0-2.013-0.86-2.108-1.923l-2.313-26.085
		c-0.094-1.061,0.697-1.921,1.767-1.921h34.412c1.07,0,2.013,0.86,2.107,1.921l2.314,26.085
		C219.419,128.979,218.628,129.839,217.559,129.839z"/>
	<path fill="#50453B" d="M216.23,129.839h-34.412c-1.069,0-2.013-0.86-2.107-1.923l-2.314-26.085
		c-0.093-1.061,0.697-1.921,1.768-1.921h34.412c1.07,0,2.013,0.86,2.108,1.921l2.313,26.085
		C218.091,128.979,217.301,129.839,216.23,129.839z"/>
	<path fill="#50453B" d="M185.472,140.833h18.745l-1.407-1.456c-0.19-0.198-0.444-0.32-0.716-0.35l-7.25-0.784l5.557-10.784
		l-1.375-8.269h-6.732l-3.086,19.061l-2.583,0.654c-0.405,0.102-0.725,0.414-0.839,0.816L185.472,140.833z"/>
	<path fill="#726659" d="M188.79,140.833l3.351-20.695c0.088-0.545,0.559-0.946,1.111-0.946h4.244c0.76,0,1.301,0.735,1.075,1.46
		l-6.277,20.181H188.79z"/>
</g>
<g>
	<path fill="#D14F4E" d="M65.052,73.634c0,0,2.984,5.688,1.63,14.387c-1.353,8.701-8.673,17.629-8.673,17.629
		s-6.036-0.931-8.575-4.781s1.001-13.021-0.621-18.317C47.191,77.257,65.052,73.634,65.052,73.634z"/>
	<path fill="#F2AE40" d="M65.893,94.89c4.893,0.083,7.133,1.908,8.833,6.055c1.23,3.001,6.28,16.445,6.28,16.445
		s1.453-0.381,1.825,0.891c1.285,4.396,1.507,10.12-7.064,8.079C67.747,124.45,65.893,94.89,65.893,94.89z"/>
	<path fill="#DD8866" d="M81.127,114.838c1.531,0.096,0.626,5.268-0.701,5.102C79.099,119.774,79.795,114.755,81.127,114.838z"/>
	<path fill="#DD8866" d="M59.339,152.702l17.916-9.953c2.246,20.404-9.875,32.696-10.885,37.479
		c-0.512,2.425-9.38,34.987-9.021,36.602c0.436,1.961,3.419,5.746,4.524,6.64c0.006,0.005,0.011,0.006,0.028,0.012
		c0.137,0.035,0.841,0.246,1.47,0.778c0.19,0.159,0.365,0.361,0.526,0.584h-6.035c-0.312-0.308-0.709-0.784-1.173-1.527
		c-0.949-1.523-2.78-1.18-2.78-1.18c-0.566,0.495-0.657,2.749-0.672,3.279h-0.709c-0.247-0.634-1.11-3.542-0.85-4.629
		c0.218-0.875,0.902-2.892,1.155-3.87c1.345-5.203,2.45-6.554,3.291-20.82c0.459-7.797,0-13.684,3.225-17.609
		C59.35,178.486,60.833,169.898,59.339,152.702z"/>
	<path fill="#184453" d="M57.863,225.415c-0.607,0-1.782-1.269-2.606-1.907c-0.771-0.599-1.215-0.572-1.215-0.572
		c-0.566,0.493-0.788,1.949-0.803,2.479h-0.709c-0.247-0.634-1.11-3.542-0.85-4.629c0.218-0.875,0.721-2.084,0.876-3.741
		c2.221-1.265,4.128,3.013,6.989,5.423c1.438,1.21,2.331,1.001,2.331,1.001s0.011,0.006,0.028,0.012
		c0.12,0.068,0.98,0.134,1.769,0.552c1.192,0.714,1.211,1.159,1.372,1.383H57.863z"/>
	<path fill="#348088" d="M73.67,126.36c0,0,17.452,25.211-15.662,87.032l-3.163-1.943c0,0-0.871-25.224,2.671-32.819
		c3.542-7.595,5.298-48.737,5.298-48.737L73.67,126.36z"/>
	<path fill="#F3A17B" d="M76.782,224.843c-0.313-0.308-0.709-0.784-1.173-1.527c-0.949-1.523-2.78-1.18-2.78-1.18
		c-0.566,0.495-0.657,2.749-0.672,3.279h-0.709c-0.247-0.634-1.11-3.542-0.85-4.629c0.218-0.875,0.872-2.9,1.155-3.87
		c0.078-0.269,0.144-0.503,0.156-0.783c-0.79-3.311-3.506-14.607-8.227-23.713c-3.75-7.232-4.958-10.107-5.701-16.591
		c-0.744-6.484-7.434-9.357-7.434-22.298c0-9.124,9.081-22.939,12.5-8.919c3.419,14.021,3.876,31.217,4.449,34.651
		c0.571,3.431,5.713,27.486,8.771,37.566c0.583,1.922,3.419,5.746,4.524,6.64c0.006,0.005,0.011,0.006,0.029,0.012
		c0.137,0.034,0.84,0.246,1.47,0.778c0.189,0.159,0.364,0.361,0.525,0.584H76.782z"/>
	<path fill="#184453" d="M76.782,225.415c-0.608,0-1.782-1.269-2.606-1.907c-0.771-0.599-1.216-0.572-1.216-0.572
		c-0.566,0.493-0.788,1.949-0.803,2.479h-0.709c-0.247-0.634-1.11-3.542-0.85-4.629c0.218-0.875,0.721-2.084,0.875-3.741
		c2.221-1.265,4.128,3.013,6.989,5.423c1.438,1.21,2.331,1.001,2.331,1.001s0.011,0.006,0.029,0.012
		c0.12,0.068,0.979,0.134,1.769,0.552c1.192,0.714,1.211,1.159,1.373,1.383H76.782z"/>
	<path fill="#4B9FA3" d="M73.67,126.36c0,0,0.897,20.499-5.193,27.444l6.721,58.236l-4.649,1.352c0,0-35.562-67.811-13.236-86.271
		L73.67,126.36z"/>
	<path fill="#FEC250" d="M65.893,94.89c0,0-2.689-0.107-7.885,0c-4.56,0.094-8.255-0.87-10.844,2.394
		c-3.885,4.899,2.436,13.93,5.763,18.61c1.239,1.746,3.856,6.584,4.385,11.228c0,0,8.783,2.552,16.358-0.761l0.565-10.776
		C74.235,115.584,79.376,104.368,65.893,94.89z"/>
	<path fill="#F2AE40" d="M59.794,96.935l4.618,3.346c0,0-0.125-4.178-3.842-6.112C60.57,94.169,61.327,95.827,59.794,96.935z"/>
	<g>
		<path fill="#D14F4E" d="M74.133,115.11v3.476h-1.02c-0.349,0-0.632-0.284-0.632-0.632v-2.212c0-0.348,0.284-0.631,0.632-0.631
			H74.133 M74.883,114.36h-1.77c-0.763,0-1.382,0.619-1.382,1.381v2.212c0,0.763,0.619,1.382,1.382,1.382h1.77V114.36L74.883,114.36
			z"/>
	</g>
	<path fill="#E66462" d="M80.256,120.553h-5.575c-0.27,0-0.489-0.219-0.489-0.49v-6.22c0-0.27,0.219-0.489,0.489-0.489h5.575
		c0.27,0,0.489,0.219,0.489,0.489v6.22C80.746,120.334,80.526,120.553,80.256,120.553z"/>
	<path fill="#F3A17B" d="M68.69,117.668c0,0,1.271-1.819,2.045-1.931c0.774-0.109,0.996-0.221,0.996-0.221v1.076
		c0,0,2.359-0.694,2.452,0c0.092,0.695-0.461,0.86-0.406,1.579c0.055,0.718-0.49,1.88-1.185,2.156
		c-0.695,0.277-3.626,0.221-3.626,0.221L68.69,117.668z"/>
	<path fill="#F2AE40" d="M48.162,96.269c5.763,2.768,3.468,26.283,3.468,26.283s10.646-4.269,17.115-5.43
		c0,0,1.81,1.599,0.995,3.592c0,0-13.947,13.354-22.617,10.865c-8.669-2.488-4.645-22.57-3.317-27.224
		C45.133,99.702,48.162,96.269,48.162,96.269z"/>
	<path fill="#F3A17B" d="M80.018,116.532l0.598,0.233c0,0-1.042,0.345-1.153,0.491c-0.11,0.146-0.572,0.623-0.572,0.623
		s0.231,0.426,0.584,0.117c0.348-0.305,1.085-0.344,1.085-0.344s-0.606,0.356-0.66,0.589c-0.055,0.233-0.287,0.785-0.287,0.785
		s0.168,0.28,0.427-0.059c0.02-0.029,0.049-0.055,0.084-0.078c0.09-0.147,0.2-0.3,0.281-0.314c0.15-0.031,0.691-0.26,0.792-0.522
		c0.106-0.261-0.205-0.39-0.205-0.39s0.352-0.048,0.433-0.392c0.082-0.349-0.283-0.532-0.283-0.532s0.44-0.229,0.339-0.541
		c-0.101-0.308-0.506-0.397-0.506-0.397s0.29-0.121,0.326-0.477c0.015-0.175-0.076-0.345-0.175-0.485
		c-0.26-0.054-0.5-0.083-0.651-0.053c-0.467,0.09-1.54,0.848-1.54,0.848s0.167,0.572,0.517,0.289
		c0.354-0.278,0.697-0.337,1.199-0.16l-0.936,0.183l-1.001,0.627c0,0,0.242,0.495,0.484,0.374
		C79.448,116.826,80.018,116.532,80.018,116.532z"/>
	<g>
		<path fill="#FFFFFF" d="M78.035,112.033c0,0-0.039-0.038-0.111-0.107c-0.06-0.079-0.186-0.179-0.279-0.346
			c-0.103-0.161-0.241-0.355-0.339-0.605c-0.056-0.124-0.115-0.256-0.178-0.396c-0.038-0.147-0.077-0.302-0.118-0.464
			c-0.104-0.325-0.123-0.687-0.138-1.072c-0.049-0.389,0.027-0.787,0.08-1.204c0.032-0.424,0.169-0.832,0.305-1.248l0.204-0.629
			l0.172-0.583c0.109-0.405,0.314-0.826,0.314-1.206c0.019-0.391,0.146-0.76,0.113-1.147c-0.03-0.381,0.01-0.76-0.051-1.11
			c-0.069-0.347-0.091-0.689-0.172-0.992c-0.153-0.608-0.313-1.115-0.462-1.458c-0.149-0.342-0.246-0.537-0.245-0.537
			c0,0,0.15,0.156,0.373,0.466c0.208,0.317,0.501,0.782,0.746,1.4c0.131,0.304,0.207,0.657,0.313,1.025
			c0.103,0.369,0.111,0.777,0.16,1.194c0.053,0.416-0.034,0.869-0.067,1.318c-0.016,0.474-0.199,0.844-0.304,1.266l-0.208,0.644
			l-0.199,0.58c-0.128,0.385-0.298,0.754-0.342,1.137c-0.063,0.377-0.183,0.741-0.17,1.093c-0.016,0.352-0.05,0.688,0.003,0.993
			c0.015,0.155,0.028,0.303,0.042,0.444c0.032,0.138,0.063,0.269,0.091,0.392c0.046,0.254,0.137,0.457,0.205,0.629
			C77.91,111.849,78.035,112.033,78.035,112.033z"/>
	</g>
	<g>
		<path fill="#F3A17B" d="M52.586,74.129c0,0,9.693-3.246,11.646,3.58c1.952,6.825-0.021,13.955-5.238,13.783
			C52.559,91.279,45.057,77.968,52.586,74.129z"/>
		
			<ellipse transform="matrix(-0.9979 0.0655 -0.0655 -0.9979 124.2897 159.7193)" fill="#1C4951" cx="59.527" cy="81.897" rx="0.503" ry="0.794"/>
		
			<ellipse transform="matrix(-0.9945 -0.1046 0.1046 -0.9945 107.6979 173.2779)" fill="#ED7D66" cx="58.395" cy="83.814" rx="0.931" ry="0.744"/>
		<path fill="#1C4951" d="M58.762,81.816c0,0,0.231-1.007,0.588-1.031c0.358-0.024,0.954,0.647,0.954,0.647l0.656-0.477
			l-0.632,0.248c0,0-0.545-0.767-1.041-0.611C58.791,80.748,58.762,81.816,58.762,81.816z"/>
		
			<ellipse transform="matrix(-0.9979 0.0655 -0.0655 -0.9979 132.3463 158.1994)" fill="#1C4951" cx="63.58" cy="81.269" rx="0.503" ry="0.794"/>
		<path fill="#1C4951" d="M62.814,81.188c0,0,0.231-1.008,0.589-1.031c0.357-0.024,0.954,0.647,0.954,0.647l0.656-0.477
			l-0.631,0.248c0,0-0.545-0.768-1.042-0.611C62.843,80.12,62.814,81.188,62.814,81.188z"/>
		<g>
			<path fill="#D14F4E" d="M58.221,79.531c0.063-0.003,0.123-0.036,0.159-0.093c0.403-0.63,1.185-0.557,1.192-0.556
				c0.111,0.012,0.21-0.068,0.222-0.179c0.011-0.11-0.069-0.209-0.18-0.221c-0.042-0.005-1.038-0.099-1.574,0.739
				c-0.06,0.093-0.032,0.218,0.061,0.278C58.138,79.523,58.181,79.533,58.221,79.531z"/>
		</g>
		<g>
			<path fill="#D14F4E" d="M62.689,78.495c0.041-0.002,0.083-0.018,0.116-0.046c0.573-0.475,1.276-0.178,1.306-0.166
				c0.102,0.045,0.221-0.002,0.264-0.104c0.044-0.101-0.001-0.219-0.103-0.264c-0.039-0.018-0.958-0.412-1.724,0.224
				c-0.086,0.071-0.098,0.198-0.026,0.283C62.564,78.474,62.627,78.499,62.689,78.495z"/>
		</g>
		<path fill="#DE784E" d="M62.837,82.552c0,0,1.731,0.016,1.563,0.625c-0.168,0.608-1.168,1.4-1.168,1.4S62.45,83.311,62.837,82.552
			z"/>
		<path fill="#D14F4E" d="M56.447,77.637c0,0-2.218,2.827-2.104,6.498c0,0-1.627-1.994-2.478-0.262
			c-0.85,1.732,2.557,4.262,2.557,4.262s-0.044,4.398-1.555,4.459c-1.511,0.061-5.463-8.377-4.576-11.246
			C49.178,78.481,51.899,75.63,56.447,77.637z"/>
		<path fill="#DD8866" d="M54.542,86.603c0.745,2.003,3.595,5.474,6.615,4.482c0,0-1.452,2.799-0.196,3.887c0,0,0,4.313-6.644,1.01
			l-0.853-9.009C54.28,87.512,54.542,86.603,54.542,86.603z"/>
		<path fill="#FFFFFF" d="M62.814,86.603c0,0-1.098,0.323-2.245,0.489C60.57,87.092,62.474,87.856,62.814,86.603z"/>
		<path fill="#D14F4E" d="M65.052,73.634c-3.548-4.731-8.982-3.876-13.421-3.002c-4.439,0.875-6.034,7.99-4.586,16.691
			c1.446,8.703-1.995,9.826-2.104,14.037c0,0,1.517-4.318,5.642-5.523c2.367-0.691,7.177-2.434,5.249-10.151
			c-2.183-8.74,5.116-4.731,7.305-11.283l2.856,6.79C65.992,81.193,66.248,75.229,65.052,73.634z"/>
	</g>
	<path fill="#F2AE40" d="M54.145,94.169c0,0,3.117,2.488,5.649,2.766l-1.786,4.425c0,0-5.605-4.48-5.703-5.724
		C52.206,94.391,54.145,94.169,54.145,94.169z"/>
</g>
<g>
	<path fill="#50453B" d="M904.058,141.311h-18.744l1.407-1.455c0.189-0.197,0.444-0.321,0.716-0.35l7.249-0.784l-5.557-10.784
		l1.376-8.269h6.731l3.086,19.062l2.585,0.653c0.404,0.103,0.724,0.414,0.839,0.816L904.058,141.311z"/>
	<polygon fill="#726659" points="895.929,127.883 898.031,138.667 894.686,138.722 889.129,127.938 	"/>
	<path fill="#726659" d="M873.301,130.316h34.41c1.07,0,2.014-0.86,2.108-1.921l2.313-26.086c0.093-1.062-0.696-1.921-1.768-1.921
		h-34.412c-1.069,0-2.014,0.859-2.107,1.921l-2.313,26.086C871.439,129.457,872.229,130.316,873.301,130.316z"/>
	<path fill="#50453B" d="M871.972,130.316h34.411c1.071,0,2.015-0.86,2.108-1.921l2.313-26.086c0.094-1.062-0.697-1.921-1.767-1.921
		h-34.412c-1.07,0-2.014,0.859-2.107,1.921l-2.313,26.086C870.11,129.457,870.902,130.316,871.972,130.316z"/>
	<polygon fill="#C0E7F2" points="907.465,128.965 871.111,128.965 873.545,101.739 909.897,101.739 	"/>
</g>
<g>
	<path fill="#E29E3B" d="M951.859,161.429l26.202-2.743c0,0-9.589-44.088-15.784-46.21c-6.195-2.121-9.296-5.659-9.296-5.659
		S948.934,152.16,951.859,161.429z"/>
	<path fill="#50453B" d="M949.428,78.56c-0.048,8.681,7.331,8.082,10.856,8.88c3.524,0.797,0.793,2.897,2.325,4.889
		c1.53,1.99,1.635,6.746,1.635,6.746l5.359,0.441c0,0,0.115-1.785,1.307-4.486c1.192-2.702,0.233-6.656,0.233-6.656
		s-1.979-8.824-2.232-11.566C968.247,69.656,949.506,64.177,949.428,78.56z"/>
	<path fill="#F2AE40" d="M966.896,90.523c0,0-5.562,0.235-8.405,1.744c-2.847,1.509,1.707,6.033,6.396,5.589
		C969.574,97.415,966.896,90.523,966.896,90.523z"/>
	<path fill="#184453" d="M979.031,224.677c0.141-1.198-0.169-3.282-0.169-4.296c0-1.239-0.814-3.509-0.814-3.509
		c-1.296-1.336-3.566,0.082-3.566,0.082c-1.011,1.594-1.148,2.854-2.028,3.63c-0.621,0.548-0.688,3.018-0.673,4.093H979.031z"/>
	<path fill="#DD8866" d="M946.885,224.104c0.313-0.308,0.709-0.784,1.173-1.527c0.949-1.521,2.781-1.178,2.781-1.178
		c0.566,0.493,0.656,2.746,0.671,3.277h0.71c0.248-0.633,1.11-3.541,0.85-4.627c-0.218-0.877-0.87-2.9-1.154-3.87
		c-0.079-0.27-0.144-0.504-0.157-0.784c0.791-3.309,3.507-14.608,8.228-23.714c3.749-7.232,4.958-10.105,5.701-16.589
		c0.744-6.485,6.653-22.695,6.653-22.695s-8.301-22.542-11.72-8.522c-3.419,14.02-3.877,31.217-4.448,34.648
		c-0.573,3.434-5.713,27.486-8.772,37.569c-0.583,1.92-3.42,5.746-4.524,6.639c-0.006,0.005-0.012,0.006-0.028,0.012
		c-0.138,0.035-0.841,0.245-1.472,0.777c-0.188,0.159-0.363,0.361-0.524,0.584H946.885z"/>
	<path fill="#F3A17B" d="M986.66,148.394c0.916,14.29-1.793,17.836-2.845,23.715c-0.796,4.446,1.468,10.887-0.815,18.047
		c-1.521,4.769-4.9,24.982-4.9,24.982s0.028,4.959-1.121,6.31c-0.825,0.971-2.749,0.531-3.073-0.166
		c-1.11-2.393,0.474-1.99,0.772-10.53c0.525-15.055,2.078-33.026,1.771-39.855c-0.303-6.674-2.543-19.832-2.543-19.832
		L986.66,148.394z"/>
	<path fill="#DD8866" d="M949.015,210.264c2.983-11.481,6.678-28.86,7.157-31.74c0.31-1.858,0.587-7.763,1.319-15.011
		c0.191-8.267,1.144-27.164,5.785-37.891l10.929,0.256c-0.442,8.518,7.817,17.712-2.239,27.563
		c-1.31,3.681-5.649,16.156-6.279,21.651c-0.743,6.483-1.952,9.356-5.701,16.589c-3.246,6.261-5.544,13.558-6.92,18.582H949.015z"/>
	<path fill="#184453" d="M946.885,224.677c0.608,0,1.781-1.267,2.606-1.907c0.771-0.599,1.216-0.573,1.216-0.573
		c0.565,0.494,0.788,1.949,0.803,2.48h0.71c0.248-0.633,1.11-3.541,0.85-4.627c-0.218-0.877-0.721-2.084-0.874-3.744
		c-2.223-1.263-4.129,3.016-6.99,5.425c-1.438,1.211-2.33,1.001-2.33,1.001s-0.012,0.006-0.028,0.012
		c-0.12,0.069-0.98,0.134-1.771,0.551c-1.19,0.717-1.21,1.159-1.371,1.383H946.885z"/>
	<path fill="#F3A17B" d="M986.055,162.996L986.055,162.996c-0.7,3.631-1.692,6.057-2.239,9.112
		c-0.796,4.446,1.468,10.887-0.815,18.047c-1.082,3.391-3.101,14.581-4.179,20.771h-4.146c0-0.059,0.002-0.118,0.002-0.176
		c0-15.065,2.078-33.026,1.771-39.855c-0.131-2.878-0.622-6.961-1.138-10.677c-0.004-0.019-1.974-12.699-3.53-13.62
		c-0.937-0.556-8.504-20.977-8.504-20.977l16.358,0.761c0,0,9.527,7.918,7.025,22.011c0,0,0.01,0.145,0.023,0.398
		C987.083,155.426,986.69,159.707,986.055,162.996z"/>
	<path fill="#184453" d="M963.276,125.622c0,0-11.679,23.376-10.159,58.854c0,0,0.709,2.28,5.932,0
		c5.222-2.28,6.318,1.195,10.688,3.186c4.366,1.99,11.533-4.697,15.803-2.46c4.269,2.239,8.777-2.407,8.777-2.407
		s0.689-46.607-17.338-59.571L963.276,125.622z"/>
	<path fill="#F2AE40" d="M956.456,93.126c0,0-5.893,2.204-10.688,9.539c-4.796,7.335-11.635,10.814-11.635,10.814l-16.156,0.84
		l-1.603,3.249c0,0,17.243,4.418,20.34,3.92c3.096-0.497,16.502-13.288,16.502-13.288L956.456,93.126z"/>
	<path fill="#FFFFFF" d="M955.644,93.776c0,0,3.938-1.367,8.183-0.628c3.116,0.54,6.621-1.499,10.975,1.922
		c6.538,5.134,6.512,11.449,5.944,16.373c-0.212,1.836-0.009,13.095,2.645,15.409c0,0-12.06,4.832-21.269,1.375l-2.994-11.917
		C959.127,116.308,946.769,113.285,955.644,93.776z"/>
	<g>
		<path fill="#F3A17B" d="M909.364,117.581c0,0,0.346,0.404,0.481,0.508c1.198,0.914,2.985,1.089,4.03,1.118
			c0.442,0.006,1.592-0.251,2.729-0.659c0.024-0.015,0.054-0.036,0.099-0.045c1.542-0.578,3.012-1.439,2.623-2.338
			c-0.695-1.584-2.516-1.693-2.516-1.693c-2.238-1.126-5.698-0.45-5.698-0.45s-0.116,0.641,0.925,0.796
			c1.047,0.149,1.394,0.729,1.394,0.729s-2.864,1.458-3.831,1.216C908.635,116.518,908.062,117.047,909.364,117.581z"/>
		<path fill="#DD8866" d="M913.008,115.161c1.046,0.3,1.617,1.087,2.487,0.844c0,0-1.142,0.303-2.066-0.456L913.008,115.161z"/>
		<path fill="#DD8866" d="M909.365,117.581c0,0-0.031-0.304,0.32-0.37c0.35-0.066,0.954,0.124,1.421,0.158
			c0.468,0.036,1.359-0.445,1.359-0.445s-0.294,0.298-0.892,0.481C910.976,117.587,909.613,117.08,909.365,117.581z"/>
		<path fill="#DD8866" d="M910.381,118.214c0,0-0.021-0.422,0.522-0.287c0.542,0.138,1.472,0.167,2.049-0.034
			s0.577-0.201,0.577-0.201s-0.157,0.268-0.796,0.454C912.098,118.332,910.493,117.759,910.381,118.214z"/>
		<path fill="#DD8866" d="M911.897,118.976c0,0-0.338-0.334,0.14-0.477c0.476-0.14,0.999-0.021,1.37-0.068
			c0.371-0.047,0.776-0.177,0.776-0.177s-0.372,0.304-0.885,0.304C912.784,118.556,911.617,118.559,911.897,118.976z"/>
		<path fill="#DD8866" d="M916.703,118.503c1.542-0.578,3.012-1.439,2.623-2.338c-0.695-1.584-2.516-1.693-2.516-1.693
			s0.886,0.515,1.014,0.872c0.134,0.362,0.719,0.571,0.766,1.199C918.638,117.171,917.756,118.152,916.703,118.503z"/>
	</g>
	<path fill="#FEC250" d="M959.244,92.107c0,0-4.891,1.378-7.124,3.621c-2.405,2.417-4.503,12.776-2.175,22.412
		c3.51,14.535-2.738,38.291,1.914,43.288C951.859,161.429,949.689,101.95,959.244,92.107z"/>
	<g>
		<path fill="#50453B" d="M951.402,86.231c0,0,2.466,3.226,2.162,8c-0.302,4.774-0.453,11.985,0.994,13.92
			c1.446,1.934,2.288,2.035,2.288,2.035s-1.403-1.717-1.383-6.133c0.021-4.416,3.534-10.45,2.938-14.907
			C957.808,84.689,951.402,86.231,951.402,86.231z"/>
		<path fill="#F3A17B" d="M961.57,72.794c0,0-9.945-2.366-11.278,4.605c-1.335,6.972,1.267,13.898,6.448,13.259
			C963.13,89.873,969.412,75.945,961.57,72.794z"/>
		
			<ellipse transform="matrix(0.9997 -0.0238 0.0238 0.9997 -1.6582 22.7188)" fill="#1C4951" cx="955.351" cy="81.151" rx="0.504" ry="0.794"/>
		
			<ellipse transform="matrix(0.9811 -0.1933 0.1933 0.9811 2.0111 186.5247)" fill="#ED7D66" cx="956.65" cy="82.959" rx="0.931" ry="0.744"/>
		<path fill="#1C4951" d="M956.106,81.002c0,0-0.32-0.982-0.678-0.974c-0.359,0.007-0.894,0.729-0.894,0.729l-0.696-0.417
			l0.651,0.19c0,0,0.475-0.813,0.984-0.702C955.982,79.94,956.106,81.002,956.106,81.002z"/>
		
			<ellipse transform="matrix(0.9997 -0.0238 0.0238 0.9997 -1.6545 22.6435)" fill="#1C4951" cx="951.259" cy="80.887" rx="0.503" ry="0.794"/>
		<path fill="#1C4951" d="M952.014,80.738c0,0-0.32-0.983-0.678-0.975c-0.359,0.009-0.894,0.73-0.894,0.73l-0.695-0.417l0.65,0.191
			c0,0,0.475-0.813,0.982-0.702C951.889,79.677,952.014,80.738,952.014,80.738z"/>
		<g>
			<path fill="#50453B" d="M956.44,78.677c-0.062,0.002-0.124-0.025-0.165-0.078c-0.458-0.592-1.231-0.449-1.237-0.447
				c-0.11,0.021-0.216-0.049-0.237-0.159c-0.021-0.109,0.049-0.215,0.159-0.236c0.04-0.009,1.024-0.192,1.634,0.595
				c0.068,0.088,0.052,0.214-0.037,0.282C956.522,78.663,956.481,78.676,956.44,78.677z"/>
		</g>
		<g>
			<path fill="#50453B" d="M951.897,78.046c-0.04,0.001-0.082-0.011-0.119-0.036c-0.612-0.421-1.287-0.063-1.315-0.048
				c-0.098,0.053-0.219,0.017-0.272-0.081c-0.053-0.097-0.02-0.218,0.078-0.272c0.038-0.021,0.919-0.495,1.738,0.069
				c0.092,0.063,0.114,0.188,0.052,0.281C952.021,78.013,951.961,78.043,951.897,78.046z"/>
		</g>
		<path fill="#DE784E" d="M952.113,82.099c0,0-1.723,0.171-1.501,0.762c0.222,0.59,1.289,1.29,1.289,1.29
			S952.566,82.82,952.113,82.099z"/>
		<path fill="#FFFFFF" d="M951.859,85.897c0,0,2.934-0.107,3.512,0.508c0.395,0.423-0.289,1.37-1.913,0.977
			C952.455,87.139,951.859,85.897,951.859,85.897z"/>
		<path fill="#50453B" d="M958.039,76.633c0,0,2.462,2.617,2.676,6.283c0,0,1.442-2.131,2.445-0.481
			c1.002,1.648-2.165,4.473-2.165,4.473s0.437,4.377,1.945,4.302c1.511-0.074,3.251-10.036,2.112-12.813
			C963.913,75.621,962.389,74.228,958.039,76.633z"/>
		<path fill="#DD8866" d="M960.737,85.393c-0.562,2.062-3.091,5.773-6.188,5.056c0,0,2.984-1.071,4.991,3.662
			c0,0-0.315,2.053,1.384,2.097c1.957,0.051,5.174-3.025,5.519-3.761c0,0-1.252,0.492-2.822-2.4
			c-1.609-2.965-1.499-4.333-1.499-4.333C961.357,86.323,960.737,85.393,960.737,85.393z"/>
		<path fill="#50453B" d="M953.332,74.682c0,0,3.576,6.416,8.943,6.804c4.435,0.32,3.696,5.72,3.696,5.72s1.666-5.779-1.11-12.376
			c-2.777-6.597-9.036-4.591-11.255-3.337c0,0-6.573-0.243-5.176,7.904C948.431,79.397,951.901,77.975,953.332,74.682z"/>
	</g>
	<path fill="#FEC250" d="M966.896,90.523c0,0-5.751,14.832,0.762,26.341c8.183,14.457,15.732,52.438,15.732,52.438
		c7.188-3.454,10.93-11.502,10.93-11.502s0.581-2.876-7.474-20.867c-2.284-5.103-4.929-20.925-5.21-26.956
		c-0.457-9.796-3.95-14.376-3.95-14.376s-3.364-2.672-7.337-2.731C970.349,92.87,968.64,90.268,966.896,90.523z"/>
	<path fill="#F2AE40" d="M977.686,95.601c-5.797,0.266-10.028,25.886-10.028,25.886L950.77,138.66l-0.163,2.651h4.744
		c0,0,18.026-12.387,19.827-15.239c1.801-2.849,5.532-16.532,5.004-21.528C979.65,99.549,977.686,95.601,977.686,95.601z"/>
	<path fill="#F3A17B" d="M955.351,141.311c0,0,0.197-1.245-3.491-2.029c-3.065-0.653-6.365,0.195-6.365,0.195l-1.656,1.834
		C943.838,141.311,954.067,141.311,955.351,141.311z"/>
</g>
<g>
	<path fill="#50453B" d="M632.267,141.311h-18.744l1.407-1.455c0.19-0.197,0.443-0.321,0.717-0.35l7.249-0.784l-5.558-10.784
		l1.377-8.269h6.731l3.087,19.062l2.583,0.653c0.404,0.103,0.725,0.414,0.839,0.816L632.267,141.311z"/>
	<polygon fill="#726659" points="624.14,127.883 626.24,138.667 622.896,138.722 617.338,127.938 	"/>
	<path fill="#726659" d="M601.51,130.316h34.411c1.069,0,2.014-0.86,2.108-1.921l2.313-26.086c0.093-1.062-0.698-1.921-1.768-1.921
		h-34.412c-1.069,0-2.014,0.859-2.107,1.921l-2.313,26.086C599.648,129.457,600.438,130.316,601.51,130.316z"/>
	<path fill="#50453B" d="M600.182,130.316h34.412c1.069,0,2.013-0.86,2.107-1.921l2.313-26.086c0.094-1.062-0.697-1.921-1.768-1.921
		h-34.411c-1.07,0-2.014,0.859-2.108,1.921l-2.313,26.086C598.32,129.457,599.111,130.316,600.182,130.316z"/>
	<polygon fill="#C0E7F2" points="635.676,128.965 599.321,128.965 601.754,101.739 638.107,101.739 	"/>
</g>
<g>
	<path fill="#50453B" d="M614.342,139.659v1.652h-32.728v-0.557c0-0.426,0.326-0.777,0.743-0.817l11.672-1.102h19.488
		C613.971,138.835,614.342,139.201,614.342,139.659z"/>
	<path fill="#726659" d="M614.342,139.659v1.652h-14.135v-0.557c0-0.426,0.319-0.777,0.743-0.817l11.673-1.102h0.895
		C613.971,138.835,614.342,139.201,614.342,139.659z"/>
</g>
<g>
	<path fill="none" stroke="#595A5C" stroke-width="2.25" stroke-linecap="round" stroke-miterlimit="10" d="M781.86,134.729
		l-14.347,47.596c-0.427,1.414-1.731,2.384-3.21,2.384h-15.271c-1.851,0-3.352,1.499-3.352,3.353v32.344
		c0,1.851,1.501,3.351,3.352,3.351h19.737h-44.968c-1.853,0-3.353-1.5-3.353-3.351v-32.344c0-1.854,1.5-3.353,3.353-3.353h15.271
		c1.479,0,2.782-0.97,3.209-2.384l13.905-46.131c1.035-3.434,4.199-5.783,7.785-5.783h14.679
		C780.897,130.411,782.509,132.577,781.86,134.729z"/>
	<path fill="#11393D" d="M751.637,161.764h19.509c1.579,0,2.973-1.035,3.424-2.547l6.556-21.726
		c0.438-1.459-0.663-2.933-2.177-2.933h-19.521c-1.579,0-2.959,1.035-3.425,2.549l-6.543,21.725
		C749.022,160.292,750.11,161.764,751.637,161.764z"/>
	<path fill="#4B9FA3" d="M751.636,161.764h16.854c1.579,0,2.973-1.035,3.424-2.547l6.557-21.726
		c0.437-1.459-0.664-2.933-2.178-2.933h-16.854c-1.579,0-2.973,1.035-3.438,2.549l-6.541,21.725
		C749.021,160.292,750.108,161.764,751.636,161.764z"/>
	<path fill="#4B9FA3" d="M759.752,175.19h-35.63c-1.648,0-2.984,1.336-2.984,2.987v4.645h41.6v-4.645
		C762.737,176.526,761.399,175.19,759.752,175.19z"/>
	<path fill="#11393D" d="M763.265,180.021h-42.655c-0.738,0-1.339,0.6-1.339,1.341v1.774c0,0.741,0.601,1.34,1.339,1.34h42.655
		c0.739,0,1.341-0.599,1.341-1.34v-1.774C764.605,180.62,764.004,180.021,763.265,180.021z"/>
	<path fill="none" stroke="#808182" stroke-width="2.25" stroke-linecap="round" stroke-miterlimit="10" d="M763.972,130.411h14.679
		c2.247,0,3.858,2.166,3.21,4.319l-14.347,47.596c-0.427,1.414-1.731,2.384-3.21,2.384h-15.271c-1.851,0-3.352,1.499-3.352,3.353
		v32.344c0,1.851,1.501,3.351,3.352,3.351h19.737"/>
</g>
<g>
	<path fill="#A673A0" d="M731.443,119.407c-5.288,1.656-6.954,7.187-10.876,20.457c0,0-15.105-1.609-18.418-1.965l-1.652,3.805
		c0,0,18.802,5.531,22.562,5.497c3.761-0.037,7.482-10.21,9.16-14.635C733.897,128.142,731.443,119.407,731.443,119.407z"/>
	<g>
		<path fill="#DD8866" d="M695.037,139.243v0.953h6.691l0.871-1.561c0,0-3.07-0.913-5.793-0.098c0,0-1.147,0.407-1.327,0.661
			C695.479,139.198,695.283,139.03,695.037,139.243z"/>
		<path fill="#F3A17B" d="M703.372,139.531c-0.284,0.465-1.061,1.109-1.953,0.978c-0.892-0.134-1.943,0.006-1.943,0.006
			s-0.255-0.375,0.382-0.525c0.639-0.15,1.657-0.683,1.69-1.104l-1.785-0.268c0,0-0.894,0.077-1.274,0.268
			c-0.383,0.192-0.479,0.86-0.925,1.251c-0.446,0.392-0.701,0.23-0.701,0.23s0.288-1.104,0.538-1.401
			c0.094-0.11,0.449-0.348,0.449-0.348s-0.732,0.074-0.987,0.533c-0.254,0.46-0.247,0.746-0.351,0.986
			c-0.073,0.17-0.35,0.479-0.637,0.378c0,0,0.254-1.171,0.35-1.629c0,0-0.43,1.366-0.542,1.481
			c-0.217,0.224-0.382-0.033-0.286-1.216c0,0-0.255,0.518-0.224,0.986c0,0-0.351,0.232-0.383-0.147
			c-0.031-0.378-0.096-1.104,0.67-1.104c0,0,0.446-0.879,1.115-0.573c0,0,1.052-0.574,1.594-0.688c0.541-0.114,1.274,0,1.274,0
			S704.614,137.518,703.372,139.531z"/>
	</g>
	<path fill="#A673A0" d="M735.194,117.218c0,0,18.511-2.864,22.778,0.195c4.266,3.058,1.905,11.52-2.408,12.904
		C751.251,131.7,735.194,117.218,735.194,117.218z"/>
	<path fill="#11393D" d="M742.022,224.677l0.055-1.869c0.049-1.734-1.462-5.475-1.43-6.629c0.035-1.155-4.493,0.811-4.493,0.811
		s-0.101,2.292-1.649,3.867c-0.991,1.007-1.19,2.823-1.208,3.82H742.022z"/>
	<path fill="#11393D" d="M718.061,224.677c0.102-4.229-1.417-8.345-1.417-8.345s-4.014-1.996-4.918,1.205
		c-0.905,3.197-5.061,3.833-7.183,4.062c-1.547,0.163-1.76,2.189-1.762,3.078H718.061z"/>
	<path fill="#11393D" d="M756.215,161.298l-19.937-0.853c0,0-21.347,1.572-31.701,8.207c-4.189,2.685,5.848,48.978,5.848,48.978
		h7.642l-2.717-38.583c0,0,21.83-0.641,28.277-3.521C750.075,172.646,756.215,161.298,756.215,161.298z"/>
	<path fill="#184453" d="M735.039,217.63c0,0-2.852-49.467-0.15-51.708c2.702-2.239,29.244-5.762,29.244-5.762
		s-0.056,13.439-7.171,17.605c-7.118,4.168-12.035,5.145-12.035,5.145l-3.403,34.72H735.039z"/>
	<path fill="#CDD0D0" d="M730.056,119.67c-0.463,15.738,6.223,40.775,6.223,40.775c4.889,4.944,27.789,1.17,27.789,1.17
		c0.553-6.07,2.279-35.543-7.547-41.945c0,0-5.742-2.868-14.582-2.401C732.515,117.765,730.056,119.67,730.056,119.67z"/>
	<path fill="#FFFFFF" d="M737.541,117.218c0,0-1.353,3.036,0,5.441l0.414-1.676l2.719,2.475l2.006-2.043l1.382,1.659
		c0,0,2.542-2.737,1.964-5.225C745.445,115.36,740.005,114.845,737.541,117.218z"/>
	<g>
		<path fill="#1C4951" d="M730.975,100.822c0,0-2.376,3.244,0.516,7.829c2.891,4.586,2.331-7.387,2.331-7.387L730.975,100.822z"/>
		<path fill="#F3A17B" d="M744.388,107.223c0.365,8.69-8.89,10.12-11.159,6.979c-0.727-1.007-1.434-2.862-1.888-4.898
			c-0.104-0.461-0.194-0.929-0.271-1.4c-0.506-3.192-0.295-6.448,1.469-7.365C738.674,97.346,744.021,98.531,744.388,107.223z"/>
		
			<ellipse transform="matrix(0.9922 -0.125 0.125 0.9922 -7.574 92.904)" fill="#1C4951" cx="736.391" cy="106.795" rx="0.486" ry="0.875"/>
		
			<ellipse transform="matrix(0.9922 -0.125 0.125 0.9922 -7.6061 92.3918)" fill="#1C4951" cx="732.294" cy="106.795" rx="0.486" ry="0.875"/>
		<path fill="#DE784E" d="M733.894,107.447c0,0-0.778,1.964-1.668,1.786c-0.889-0.177,0.007,1.775,2.29,0.789
			C734.516,110.022,734.987,108.819,733.894,107.447z"/>
		
			<ellipse transform="matrix(0.9093 -0.4161 0.4161 0.9093 21.9661 317.1555)" fill="#ED7D66" cx="738.573" cy="108.185" rx="0.9" ry="0.72"/>
		<path fill="#ED7D66" d="M732.287,108.724c-0.053,0.381-0.473,0.633-0.946,0.58c-0.104-0.461-0.194-0.929-0.271-1.4
			c0.138-0.037,0.284-0.043,0.435-0.023C731.998,107.953,732.347,108.332,732.287,108.724z"/>
		<path fill="none" stroke="#1C4951" stroke-width="0.4398" stroke-linecap="round" stroke-miterlimit="10" d="M735.795,103.618
			c0,0,0.998-0.297,1.746,0.163"/>
		<path fill="#1C4951" d="M740.829,96.56c-3.503-1.09-8.018-0.003-10.333,2.581c-1.316,1.47-0.334,2.943,1.313,3.502
			c2.157,0.734,8.867-0.604,8.867-0.604l2.404,6.099l-0.21,3.212c0,0,0.233,0.984,0.235,0.99c-0.025-0.313,1.03-1.271,1.229-1.507
			c0.592-0.706,0.973-1.361,1.229-2.261c0.78-2.739,0.604-6.401-0.783-8.923C743.917,98.082,742.487,97.076,740.829,96.56z"/>
		<path fill="#F3A17B" d="M742.548,107.22c0,0,1.199-1.816,2.623-0.97c1.421,0.846-0.386,4.136-1.803,4.198
			C741.951,110.509,742.548,107.22,742.548,107.22z"/>
		<path fill="#FFFFFF" d="M733.664,111.492c0,0,2.028-0.241,2.729-0.571c0.702-0.33,0.299,0.946-1.24,1.29
			C733.611,112.555,733.664,111.492,733.664,111.492z"/>
		<path fill="none" stroke="#1C4951" stroke-width="0.4398" stroke-linecap="round" stroke-miterlimit="10" d="M732.894,103.618
			c0,0-0.998-0.297-1.745,0.163"/>
	</g>
	<path fill="#FFFFFF" d="M744.398,133.303h4.53l1.28,6.197c0,0-3.464,1.297-4.528-0.265S744.398,133.303,744.398,133.303z"/>
	<path fill="#DD8866" d="M736.131,115.678l3.01,5.074l1.533,2.156c0,0,3.347-2.078,4.543-4.894c0,0-3.098-3.401-1.538-7.62
		c0,0-0.704,0.268-1.079-0.519C742.6,109.876,742.075,115.152,736.131,115.678z"/>
	<path fill="#C18DB7" d="M748.929,117.218c0,0-2.763,8.51,0,18.243c2.766,9.731,11.938,30.282,11.333,39.139
		c0,0,3.155-0.1,5.81-3.86c2.654-3.759-0.806-39.735-3.334-45.47C760.209,119.535,748.929,117.218,748.929,117.218z"/>
	<path fill="#C18DB7" d="M736.131,117.851c0,0-5.299,14.734,0.147,42.595l-2.174,0.205c0,0-6.99-27.649-4.049-40.98
		C730.056,119.67,734.665,117.551,736.131,117.851z"/>
	<path fill="#FFFFFF" d="M740.674,123.458l0.514-3.48c0,0,2.565-1.503,2.996-3.517c0,0,3.582,0.143-0.122,6.612l-1.382-1.659
		L740.674,123.458z"/>
	<path fill="#FFFFFF" d="M737.401,117.82c0,0,0.799,1.569,1.905,2.14l1.367,3.499l-2.719-3.038L737.401,117.82z"/>
	<path fill="#A673A0" d="M747.999,130.932c0,0,3.975-8.446,9.365-10.973c5.39-2.525-6.352-5.575-8.002-3.498
		C747.713,118.54,746.517,126.625,747.999,130.932z"/>
	<g>
		<path fill="#FFFFFF" d="M740.674,123.458c0,0,0.162,1.945,0.404,4.863c0.118,1.457,0.256,3.157,0.403,4.979
			c0.118,1.823,0.316,3.761,0.5,5.7c0.129,1.944,0.392,3.872,0.567,5.689c0.086,0.91,0.229,1.777,0.331,2.607
			c0.11,0.829,0.215,1.613,0.312,2.336c0.078,0.729,0.239,1.375,0.341,1.96c0.112,0.583,0.21,1.091,0.29,1.51
			c0.152,0.842,0.239,1.323,0.239,1.323s-0.139-0.468-0.38-1.286c-0.117-0.412-0.259-0.912-0.422-1.486
			c-0.155-0.575-0.375-1.219-0.483-1.944c-0.136-0.721-0.282-1.502-0.438-2.329c-0.146-0.828-0.347-1.696-0.435-2.608
			c-0.209-1.82-0.509-3.757-0.669-5.704c-0.15-1.949-0.315-3.896-0.401-5.726c-0.114-1.828-0.142-3.538-0.176-5.002
			c-0.046-1.464-0.01-2.687-0.014-3.541C740.651,123.946,740.674,123.458,740.674,123.458z"/>
	</g>
	<path fill="#A673A0" d="M733.863,130.411c0,0-3.202-8.617-1.976-11.57c1.227-2.955,4.781-1.623,4.781-1.623
		S733.909,124.253,733.863,130.411z"/>
	<path fill="#A673A0" d="M759.273,121.207c-4.064-0.893-12.912,18.653-11.695,22.925c1.216,4.273,4.644,6.002,6.967,2.428
		c2.323-3.574,6.967-14.081,7.52-18.172C762.618,124.296,759.273,121.207,759.273,121.207z"/>
	<path fill="#A673A0" d="M748.619,140.464c0,0,4.716,4.057,3.442,7.989c0,0-4.151,1.389-29.036-7.928v-2.958
		C723.025,137.567,736.166,135.866,748.619,140.464z"/>
	<g>
		<path fill="#F3A17B" d="M726.232,139.227c-0.112,1.162-2.487,1.05-2.487,1.05s-1.347,0.218-2.057,0.245
			c0,0,0.065,0.863-0.319,0.916c-0.391,0.053-0.557-1.381-0.557-1.381s-0.704,1.494-0.988,1.381
			c-0.279-0.114-0.227-1.606-0.227-1.606s-0.829,0-0.882,0.225c-0.027,0.107-0.167,0.512-0.345,0.864
			c-0.174,0.351-0.38,0.637-0.545,0.523c-0.332-0.225-0.166-1.997-0.166-1.997s-0.438,0-0.604,0.053
			c-0.167,0.06-0.559,1.328-1.109,0.557c0,0,0.074-1.274,1.109-2.051c0.504-0.377,2.429-0.961,3.536-1.047
			c1.619-0.12,3.782,0.232,4.187,0.444C725.185,137.623,726.346,138.067,726.232,139.227z"/>
		<path fill="#DD8866" d="M720.813,140.056c0,0-0.171-0.906,0.281-1.068c0.452-0.162,1.281-0.287,1.281-0.287
			s-0.99,0.004-1.594,0.209c-0.604,0.206-0.391,1.936-0.391,1.936L720.813,140.056z"/>
		<path fill="#DD8866" d="M720.593,138.292c-0.118,0.034-0.609,0.192-0.769,0.412c-0.187,0.246-0.227,1.128-0.227,1.128
			s-0.829,0-0.882,0.225c-0.027,0.107-0.167,0.512-0.345,0.864c0.012-0.153,0.094-1.321,0.483-1.931
			C719.233,138.385,720.4,138.298,720.593,138.292z"/>
		<path fill="#DD8866" d="M718.716,138.286c0,0-0.943,0.577-1.056,1.162c0,0-0.438,0-0.604,0.053
			C717.527,138.313,718.716,138.286,718.716,138.286z"/>
		<path fill="#DD8866" d="M726.232,139.227c-0.112,1.162-2.487,1.05-2.487,1.05s-1.347,0.218-2.057,0.245
			c-0.1-0.332,0.119-0.478,0.146-0.749c0,0,1.002,0.019,1.194-0.167c0,0,0.937,0.167,1.354-0.106
			C724.793,139.227,725.569,140.196,726.232,139.227z"/>
	</g>
	
		<ellipse fill="none" stroke="#1C4951" stroke-width="0.375" stroke-miterlimit="10" cx="736.368" cy="106.865" rx="1.173" ry="1.32"/>
	
		<ellipse fill="none" stroke="#1C4951" stroke-width="0.375" stroke-miterlimit="10" cx="732.293" cy="106.971" rx="1.172" ry="1.321"/>
	<path fill="none" stroke="#1C4951" stroke-width="0.375" stroke-miterlimit="10" d="M733.466,106.971c0,0,0.327-0.722,1.729-0.106"
		/>
	<path fill="none" stroke="#1C4951" stroke-width="0.375" stroke-miterlimit="10" d="M737.541,106.865c0,0,4.33-1.05,5.813-0.466"/>
</g>
<g>
	<path fill="none" stroke="#595A5C" stroke-width="2.25" stroke-linecap="round" stroke-miterlimit="10" d="M570.634,149.686v72.543
		c0,0.844,0.683,1.526,1.524,1.526h38.726c0.843,0,1.524-0.683,1.524-1.526v-72.543c0-0.843,0.685-1.527,1.527-1.527h342.218
		c0.844,0,1.527,0.684,1.527,1.527v72.543c0,0.844-0.684,1.526-1.527,1.526h-38.723c-0.843,0-1.527-0.683-1.527-1.526v-72.543
		c0-0.843-0.682-1.527-1.525-1.527h-342.22C571.316,148.159,570.634,148.843,570.634,149.686z"/>
	<path fill="none" stroke="#808182" stroke-width="2.25" stroke-linecap="round" stroke-miterlimit="10" d="M956.153,148.159
		c0.844,0,1.527,0.684,1.527,1.527v72.543c0,0.844-0.684,1.526-1.527,1.526h-38.723c-0.843,0-1.527-0.683-1.527-1.526v-72.543
		c0-0.843-0.682-1.527-1.525-1.527h-342.22c-0.842,0-1.524,0.684-1.524,1.527v72.543c0,0.844,0.683,1.526,1.524,1.526"/>
	<g>
		<path fill="#CDD0D0" d="M918.38,147.13H567.724c-0.409,0-0.741-0.333-0.741-0.742v-3.042H918.38V147.13z"/>
		<path fill="#B9BABC" d="M961.331,142.411H918.38v4.719h42.21c0.409,0,0.741-0.333,0.741-0.742V142.411z"/>
	</g>
	<g>
		<path fill="#FFFFFF" d="M923.979,141.311H564.853c-0.391,0-0.709,0.317-0.709,0.708v2.11c0,0.392,0.318,0.709,0.709,0.709h359.127
			V141.311z"/>
		<path fill="#E3E4E5" d="M963.346,141.311h-46.582c-0.392,0-0.71,0.317-0.71,0.708v2.11c0,0.392,0.318,0.709,0.71,0.709h46.582
			c0.456,0,0.825-0.369,0.825-0.823v-1.881C964.171,141.679,963.802,141.311,963.346,141.311z"/>
	</g>
</g>
<g>
	<path fill="#DD8866" d="M573.625,97.74c-0.413,0.574-4.46,0.467-5.951,0.408c-0.336-0.013-0.544-0.026-0.544-0.026
		c1.521,2.15,0.636,2.32,0.636,2.32c-1.687-2.75-4.283-1.896-4.721-4.594c-0.089-0.557,0.058-0.987,0.298-1.314
		c0.45-0.617,1.248-0.872,1.997-0.727c1.744,0.335,4.091,0.347,5.269,0.25c1.344-0.103,0.901,0.422,0.901,0.422
		c0.125-0.02,0.24-0.045,0.356-0.071c0.885-0.183,1.508-0.45,1.221,0.197c-0.323,0.732-2.809,1.369-2.809,1.369
		c3.769-0.05,4.183-0.951,3.96-0.261c-0.3,0.943-3.551,1.475-3.647,1.49C572.843,97.559,574.035,97.172,573.625,97.74z"/>
	<path fill="#DD8866" d="M550.965,119.67l-11.599-22.044c0,0,16.022-1.647,25.756-0.542v-2.101c0,0-27.91-4.618-31.188-1.217
		c-2.987,3.097,8.625,29.417,12.607,33.62c3.981,4.202,5.921,4.093,5.921,4.093L550.965,119.67z"/>
	<g>
		<path fill="#F3A17B" d="M545.381,104.789c0,0,6.167-8.153,11.633-3.624s7.864,11.528,3.461,14.333
			C555.045,118.956,541.337,112.21,545.381,104.789z"/>
		<path fill="#DD8866" d="M561.135,114.821c0,0-2.269,1.378,0.16,5.628l-7.074,4.477c1.521-6.526-1.758-9.154-1.758-9.154
			C553.442,115.756,555.022,113.53,561.135,114.821z"/>
	</g>
	<polygon fill="#DD8866" points="623.905,196.232 629.846,204.516 627.975,207.258 619.998,198.713 	"/>
	<path fill="#184453" d="M640.459,203.915c-0.82,0.354-1.409,0.983-1.536,1.034c-0.017,0.01-0.021,0.015-0.028,0.017
		c-1.387,0.304-6.036,0.026-7.838-0.861c-0.213-0.104-2.083-2.166-2.083-2.166c-2.603,2.097-3.028,4.661-3.028,4.661
		c0.699,0.608,4.275,4.372,4.479,4.64c0.086,0.111,0.205,0.227,0.349,0.342c1.007,0.814,3.227,1.713,3.796,1.893l0.443-0.554
		c-0.405-0.345-1.401-1.426-1.433-2.178c0,0,0.259-0.363,1.206-0.591c1.017-0.244,2.739-0.366,3.119-0.84l4.491-5.603
		C642.121,203.695,641.762,203.433,640.459,203.915z"/>
	<path fill="#50453B" d="M562.302,157.081c0,0-5.441,13.698,6.003,19.611c6.438,3.328,25.19,2.314,25.19,2.314
		s13.513,16.567,27.175,24.047c0,0,3.997-2.41,5.311-4.642c0,0-19.921-25.06-25.114-30.296c-5.192-5.235-22.699-7.956-22.699-7.956
		l-2.476-9.827L562.302,157.081z"/>
	<polygon fill="#F3A17B" points="636.287,191.836 644.832,197.393 644.085,200.628 633.55,195.568 	"/>
	<path fill="#184453" d="M654.5,192.975c-0.635,0.629-0.954,1.429-1.055,1.523c-0.012,0.015-0.015,0.02-0.021,0.023
		c-1.183,0.787-5.613,2.22-7.614,2.05c-0.236-0.021-2.729-1.261-2.729-1.261c-1.662,2.897-1.128,5.442-1.128,5.442
		c0.876,0.312,5.572,2.519,5.861,2.694c0.12,0.072,0.272,0.136,0.449,0.19c1.231,0.395,3.628,0.424,4.223,0.385l0.211-0.679
		c-0.501-0.173-1.822-0.82-2.126-1.509c0,0,0.108-0.431,0.911-0.987c0.856-0.597,2.417-1.339,2.599-1.916l2.147-6.853
		C655.968,192.165,655.538,192.052,654.5,192.975z"/>
	<path fill="#726659" d="M564.144,157.357c0,0-3.21,15.637,13.261,18.658c16.471,3.019,26.14,4.363,26.14,4.363
		s16.501,12.812,31.298,17.677c0,0,3.491-3.098,4.376-5.53c0,0-24.154-21.012-30.215-25.215c-6.059-4.202-26.95-7.15-26.95-7.15
		l-4.821-9.827L564.144,157.357z"/>
	<path fill="#FEC250" d="M561.82,158.58c0,0,9.593,1.335,16.347-6.341c0,0-0.842-16.677-0.077-20.201
		c1.208-5.569-12.075-16.134-19.273-13.645c-7.198,2.49-9.913,5.18-8.56,11.075C551.611,135.363,561.049,147.751,561.82,158.58z"/>
	<path fill="#184453" d="M556.731,117.768c0,0,10.343-1.947,13.754,2.637c3.411,4.585,5.603,31.605,4.441,52.009
		c0,0-14.925,6.522-22.31,2.515l5.72-19.271c0,0-8.179-18.195-10.144-24.609C546.227,124.637,548.987,119.359,556.731,117.768z"/>
	<path fill="#195C6B" d="M557.181,98.834c3.182,1.113,7.266,5.529,4.556,10.591c-2.712,5.062-3.955,8.764-2.043,13.394
		c1.913,4.63,1.396,11.696-5.315,15.211c0,0-3.188,1.221-5.46-1.904c-2.275-3.126,1.878-11.549-2.241-16.394
		c-4.119-4.843-7.351-16.568,4.32-19.722C550.997,100.011,552.936,97.352,557.181,98.834z"/>
	<path fill="#F3A17B" d="M563.447,118.27c2.337,5.469,8.089,7.901,8.089,7.901l-5.537-36.939l-1.855-27.869h-2.732
		c0,0-1.267,24.331-0.402,27.427C561.922,92.067,563.447,118.27,563.447,118.27z"/>
	<path fill="#F3A17B" d="M562.945,52.16c-0.652,0.273-1.466,4.24-1.747,5.705c-0.063,0.33-0.099,0.537-0.099,0.537
		c-1.747-1.97-2.114-1.145-2.114-1.145c2.296,2.265,0.876,4.601,3.405,5.638c0.522,0.214,0.975,0.167,1.348,0.008
		c0.703-0.298,1.132-1.018,1.162-1.782c0.067-1.773,0.587-4.062,0.949-5.187c0.405-1.286-0.207-0.975-0.207-0.975
		c0.047-0.115,0.1-0.223,0.15-0.33c0.378-0.821,0.78-1.367,0.084-1.232c-0.787,0.147-1.969,2.425-1.969,2.425
		c0.902-3.66,1.873-3.859,1.15-3.8c-0.986,0.081-2.241,3.125-2.278,3.217C562.944,52.964,563.591,51.89,562.945,52.16z"/>
</g>
<g>
	<path fill="none" stroke="#595A5C" stroke-width="2.25" stroke-linecap="round" stroke-miterlimit="10" d="M536.155,134.729
		l14.347,47.596c0.427,1.414,1.732,2.384,3.209,2.384h15.272c1.851,0,3.352,1.499,3.352,3.353v32.344
		c0,1.851-1.501,3.351-3.352,3.351h-19.738h44.969c1.852,0,3.354-1.5,3.354-3.351v-32.344c0-1.854-1.502-3.353-3.354-3.353h-15.271
		c-1.479,0-2.783-0.97-3.211-2.384l-13.904-46.131c-1.035-3.434-4.197-5.783-7.785-5.783h-14.677
		C537.117,130.411,535.506,132.577,536.155,134.729z"/>
	<path fill="#4B9FA3" d="M566.379,161.764H546.87c-1.579,0-2.973-1.035-3.424-2.547l-6.557-21.726
		c-0.438-1.459,0.665-2.933,2.177-2.933h19.521c1.58,0,2.96,1.035,3.425,2.549l6.542,21.725
		C568.993,160.292,567.906,161.764,566.379,161.764z"/>
	<path fill="#11393D" d="M563.725,161.764H546.87c-1.579,0-2.973-1.035-3.424-2.547l-6.557-21.726
		c-0.438-1.459,0.665-2.933,2.177-2.933h16.854c1.581,0,2.973,1.035,3.438,2.549l6.542,21.725
		C566.338,160.292,565.251,161.764,563.725,161.764z"/>
	<path fill="#4B9FA3" d="M558.264,175.19h35.629c1.648,0,2.985,1.336,2.985,2.987v4.645h-41.6v-4.645
		C555.278,176.526,556.615,175.19,558.264,175.19z"/>
	<path fill="#11393D" d="M554.751,180.021h42.655c0.739,0,1.339,0.6,1.339,1.341v1.774c0,0.741-0.6,1.34-1.339,1.34h-42.655
		c-0.74,0-1.341-0.599-1.341-1.34v-1.774C553.41,180.62,554.011,180.021,554.751,180.021z"/>
	
		<path fill="none" stroke="#808182" stroke-width="2.25" stroke-linecap="round" stroke-linejoin="round" stroke-miterlimit="10" d="
		M549.245,223.756h44.969c1.852,0,3.354-1.5,3.354-3.351v-32.344c0-1.854-1.502-3.353-3.354-3.353h-15.271
		c-1.479,0-2.783-0.97-3.211-2.384l-13.904-46.131c-1.035-3.434-4.197-5.783-7.785-5.783h-14.677"/>
</g>
<g>
	<path fill="#50453B" d="M713.717,141.311v-2.479l11.675,1.105c0.424,0.041,0.745,0.394,0.745,0.817v0.557H713.717z"/>
	<path fill="#726659" d="M713.717,138.832h-19.485c-0.453,0-0.821,0.369-0.821,0.823v1.656h20.307V138.832z"/>
</g>
<g>
	<g>
		<path fill="#E3E4E5" d="M901.447,109.456c0,0-1.401,0.266-3.475,1.095l6.802,16.061c0,0,12.69-2.126,15.013-1.712v-1.659
			L901.447,109.456z"/>
		<path fill="#FFFFFF" d="M915.002,115.242c0,0-7.141-7.495-15.859-6.3l7.931,14.726c0,0,7.24-1.627,13.543,0.136L915.002,115.242z"
			/>
		<path fill="#FFFFFF" d="M898.968,110.965l6.47,14.35c0,0,9.042-1.658,13.853-0.995c0,0-6.884-0.83-13.189,0L898.968,110.965z"/>
	</g>
	<path fill="#DD8866" d="M855.313,135.571l3.981,3.223c0,0,3.436,0.482,5.423,2.517h-9.404c0,0-0.789-2.189-1.054-2.517
		c-0.265-0.327,0.265,0.328,0.265,0.328l-2.75-1.43L855.313,135.571z"/>
	<path fill="#348088" d="M840.44,103.5l4.366,19.795l11.28,12.055c-0.554,3.872-3.98,3.429-3.98,3.429l-13.272-7.849l-7.166-22.953
		L840.44,103.5z"/>
	<g>
		<path fill="#F3A17B" d="M856.05,83.377c-1.661-4.167-11.107,0.211-11.411,3.122c-0.305,2.91,0.456,12.073,7.043,12.995
			C858.574,100.457,857.56,87.163,856.05,83.377z"/>
		<path fill="#DD8866" d="M853.236,93.133c0,0,2.123,5.275-0.306,6.373C850.503,100.602,845.385,92.967,853.236,93.133z"/>
		<path fill="#F3A17B" d="M853.041,97.371c0,0-1.896,2.917-2.388,6.866c0,0-3.491-1.291-9.247-4.018c0,0,3.517-1.763,4.508-4.124
			l0.349-0.648C850.629,93.885,853.041,97.371,853.041,97.371z"/>
		<path fill="#195C6B" d="M856.633,82.668c0,0-2.909-2.998-7.724-2.236c-4.813,0.762-7.17,4.528-6.215,9.768
			c0.079,0.438,0.184,0.849,0.303,1.237c0.252,2.25,1.244,4.124,2.862,4.53c5.452,1.367,7.377-2.833,7.377-2.833
			c-0.573-0.892-0.375-3.679,0.631-3.615c1.005,0.063,0.993,0.914,0.993,0.914c1.068-3.04,1.053-5.022,0.905-6.057
			C856.731,84.532,856.633,82.668,856.633,82.668z"/>
		<path fill="#195C6B" d="M855.688,87.244c0,0,1.819-0.677,0.948-1.772c0,0,1.11-0.635,1.028-1.714
			c-0.084-1.078-0.515-1.41-0.515-1.41s0.9-1.009,0-2.039c-0.897-1.03-2.059-0.449-2.059-0.449s-0.827-2.448-2.571-0.995
			c0,0-1.301-1.783-2.96,0c0,0-1.933-1.991-3.177,0.166c0,0-3.157-1.532-3.153,1.908c0,0-3.298,0.909-0.946,3.235
			c0,0-1.942,0.64-0.845,2.737c0,0-1.427,1.909,0.845,3.07c0,0-1.245,1.675,0.93,2.663
			C843.213,92.642,851.557,85.834,855.688,87.244z"/>
	</g>
	<path fill="#FFFFFF" d="M840.44,98.387l2.685-2.479c0,0,7.033,0.357,7.741,4.693L840.44,98.387z"/>
	<path fill="#11393D" d="M822.438,224.677c-0.615-3.827,0.226-5.688,0.226-5.688s0.112-2.413,0.845-2.901
		c3.301-2.194,3.271,0.435,3.271,0.435c0.58-3.029,3.003-0.938,3.003-0.938s-0.322,3.702,0.823,4.193
		c1.146,0.495,5.48,1.16,5.075,4.158c-0.05,0.373-0.109,0.574-0.033,0.741H822.438z"/>
	<path fill="#50453B" d="M817.372,134.532c0,0-7.7,17.146,6.056,24.6l10.641,19.203c0,0-7.42,20.162-11.47,38.617
		c0,0,3.606,1.322,7.693,0.379c0,0,10.383-28.947,14.262-36.375c3.878-7.427-4.185-35.997-4.185-35.997l-2.393-7.268
		L817.372,134.532z"/>
	<path fill="#11393D" d="M850.189,224.677c-0.617-3.829,0.225-5.689,0.225-5.689s0.113-2.413,0.844-2.901
		c3.304-2.195,3.272,0.435,3.272,0.435c0.582-3.031,3.005-0.938,3.005-0.938s-0.324,3.702,0.822,4.195
		c1.146,0.495,5.482,1.158,5.076,4.158c-0.05,0.373-0.109,0.574-0.031,0.741H850.189z"/>
	<path fill="#726659" d="M822.998,140.407c0,0-5.463,14.576,8.955,18.725l20.743,18.247l-2.286,39.853c0,0,3.544,1.81,7.629,0.864
		c0,0,5.015-29.33,6.647-42.469c1.034-8.316-25.088-29.34-25.088-29.34l6.901-8.595L822.998,140.407z"/>
	<path fill="#4B9FA3" d="M830.702,100.968c6.35-6.218,22.367-1.257,26.775,3.293c9.162,9.462-9.246,19.705-12.45,43.899
		c0,0-8.912,4.331-18.247,4.331c-11.659,0-12.74-4.331-12.74-4.331S812.181,119.109,830.702,100.968z"/>
	<path fill="#DD8866" d="M866.463,125.843c0,0-0.01,0-0.027,0c0.059,0.073,0.114,0.151,0.163,0.229L866.463,125.843z"/>
	<path fill="#F3A17B" d="M896.022,116.69c0,0,1.267-0.984,2.543-1.64c1.275-0.656,1.256-0.41,2.747-0.071
		c1.49,0.339,2.007,0.885,2.007,0.885s0.166,0.572-0.704,0.546s-1.673-0.327-2.103,0.304c-0.429,0.63,3.254,1.666,3.254,1.666
		l0.7-0.908c0,0,0.665,0.744,0.542,1.468c-0.125,0.724-1.337,1.185-1.723,2.24c-0.384,1.054-7.872-0.937-7.872-0.937L896.022,116.69
		z"/>
	<path fill="#348088" d="M857.93,104.544c0,0-6.583,3.342-4.158,12.208c0,0,16.763,6.897,23.985,6.807
		c7.225-0.09,20.173-1.545,20.173-1.545s1.434-3.292-1.937-5.685l-18.104-1.704L857.93,104.544z"/>
</g>
<g>
	<path fill="none" stroke="#595A5C" stroke-width="2.25" stroke-linecap="round" stroke-miterlimit="10" d="M785.813,134.729
		l14.347,47.596c0.427,1.414,1.73,2.384,3.209,2.384h15.271c1.852,0,3.352,1.499,3.352,3.353v32.344c0,1.851-1.5,3.351-3.352,3.351
		h-19.736h44.968c1.852,0,3.353-1.5,3.353-3.351v-32.344c0-1.854-1.501-3.353-3.353-3.353h-15.271c-1.478,0-2.783-0.97-3.209-2.384
		l-13.905-46.131c-1.036-3.434-4.198-5.783-7.785-5.783h-14.678C786.774,130.411,785.165,132.577,785.813,134.729z"/>
	<path fill="#4B9FA3" d="M816.036,161.764h-19.508c-1.581,0-2.973-1.035-3.425-2.547l-6.557-21.726
		c-0.438-1.459,0.664-2.933,2.178-2.933h19.521c1.579,0,2.96,1.035,3.424,2.549l6.543,21.725
		C818.65,160.292,817.563,161.764,816.036,161.764z"/>
	<path fill="#11393D" d="M813.382,161.764h-16.854c-1.581,0-2.973-1.035-3.425-2.547l-6.557-21.726
		c-0.438-1.459,0.664-2.933,2.178-2.933h16.854c1.58,0,2.974,1.035,3.438,2.549l6.543,21.725
		C815.996,160.292,814.909,161.764,813.382,161.764z"/>
	<path fill="#4B9FA3" d="M807.922,175.19h35.629c1.648,0,2.985,1.336,2.985,2.987v4.645h-41.601v-4.645
		C804.936,176.526,806.272,175.19,807.922,175.19z"/>
	<path fill="#11393D" d="M804.408,180.021h42.655c0.739,0,1.34,0.6,1.34,1.341v1.774c0,0.741-0.601,1.34-1.34,1.34h-42.655
		c-0.74,0-1.341-0.599-1.341-1.34v-1.774C803.067,180.62,803.668,180.021,804.408,180.021z"/>
	
		<path fill="none" stroke="#808182" stroke-width="2.25" stroke-linecap="round" stroke-linejoin="round" stroke-miterlimit="10" d="
		M798.904,223.756h44.968c1.852,0,3.353-1.5,3.353-3.351v-32.344c0-1.854-1.501-3.353-3.353-3.353h-15.271
		c-1.478,0-2.783-0.97-3.209-2.384l-13.905-46.131c-1.036-3.434-4.198-5.783-7.785-5.783h-14.678"/>
</g>
<g>
	<path fill="#726659" d="M710.615,130.316h-34.412c-1.07,0-2.014-0.86-2.107-1.921l-2.313-26.086
		c-0.095-1.062,0.695-1.921,1.766-1.921h34.412c1.07,0,2.014,0.859,2.107,1.921l2.314,26.086
		C712.476,129.457,711.687,130.316,710.615,130.316z"/>
	<path fill="#50453B" d="M709.288,130.316h-34.413c-1.068,0-2.013-0.86-2.108-1.921l-2.312-26.086
		c-0.095-1.062,0.696-1.921,1.767-1.921h34.412c1.068,0,2.013,0.859,2.107,1.921l2.313,26.086
		C711.148,129.457,710.357,130.316,709.288,130.316z"/>
	<path fill="#50453B" d="M678.529,141.311h18.745l-1.407-1.455c-0.191-0.197-0.443-0.321-0.716-0.35l-7.25-0.784l5.558-10.784
		l-1.376-8.269h-6.732l-3.087,19.06l-2.582,0.655c-0.406,0.103-0.726,0.414-0.841,0.816L678.529,141.311z"/>
	<path fill="#726659" d="M681.847,141.311l3.352-20.695c0.087-0.544,0.559-0.946,1.11-0.946h4.244c0.76,0,1.301,0.736,1.074,1.46
		l-6.276,20.181H681.847z"/>
</g>
<g>
	<path fill="#50453B" d="M886.132,139.659v1.652h-32.727v-0.557c0-0.426,0.324-0.777,0.743-0.817l11.672-1.102h19.49
		C885.762,138.835,886.132,139.201,886.132,139.659z"/>
	<path fill="#726659" d="M886.132,139.659v1.652h-14.134v-0.557c0-0.426,0.318-0.777,0.744-0.817l11.672-1.102h0.896
		C885.762,138.835,886.132,139.201,886.132,139.659z"/>
</g>
<g>
	<g id="XMLID_29_">
		<g id="XMLID_48_">
			<path id="XMLID_56_" fill="#A4B5C4" d="M87.206,236.072c-0.382,0.392-0.71,0.823-0.98,1.285l-0.412-0.213
				c-0.059-0.265-0.309-0.445-0.583-0.412c-0.292,0.033-0.503,0.299-0.468,0.592c0.035,0.291,0.3,0.502,0.593,0.469
				c0.058-0.008,0.113-0.025,0.163-0.047l0.399,0.207c-0.222,0.489-0.383,1.008-0.477,1.543l0.66,0.116
				c0.204-1.155,0.752-2.218,1.585-3.072L87.206,236.072z"/>
			<path id="XMLID_55_" fill="#A4B5C4" d="M92.061,234.034c-0.152,0-0.302,0.005-0.452,0.015l-0.064-0.555
				c0.166-0.13,0.262-0.344,0.235-0.569c-0.041-0.348-0.356-0.597-0.705-0.555c-0.347,0.042-0.596,0.356-0.556,0.703
				c0.027,0.225,0.168,0.408,0.358,0.5l0.065,0.551c-0.631,0.104-1.242,0.294-1.823,0.571l0.29,0.605
				c0.826-0.396,1.718-0.597,2.65-0.597c0.438,0,0.878,0.049,1.305,0.141l0.143-0.655C93.035,234.086,92.548,234.034,92.061,234.034
				z"/>
			<path id="XMLID_54_" fill="#A4B5C4" d="M97.903,236.29c0.292-0.037,0.501-0.304,0.464-0.597
				c-0.035-0.292-0.302-0.501-0.594-0.465c-0.274,0.033-0.474,0.269-0.469,0.539l-0.368,0.321c-0.369-0.381-0.787-0.719-1.246-1.008
				l-0.357,0.566c1.003,0.633,1.789,1.529,2.269,2.59l0.611-0.277c-0.222-0.49-0.502-0.948-0.834-1.366l0.356-0.312
				C97.788,236.293,97.845,236.296,97.903,236.29z"/>
			<path id="XMLID_53_" fill="#A4B5C4" d="M91.576,243.066c-0.342,0.021-0.685,0.031-1.024,0.031c-0.778,0-1.533-0.054-2.191-0.159
				c-0.346-0.056-0.749-0.136-1.125-0.258c0.926,1.646,2.716,2.765,4.768,2.765c2.526,0,4.655-1.694,5.263-3.983
				c-0.603,0.397-1.332,0.729-2.175,0.991C94.049,242.779,92.832,242.99,91.576,243.066z"/>
			<path id="XMLID_49_" fill="#A4B5C4" d="M92.061,235.377c-2.966,0-5.379,2.359-5.379,5.258c0,0.377,0.041,0.75,0.121,1.117
				c0.596,0.426,2.394,0.786,4.731,0.646c2.547-0.153,4.687-0.847,5.903-1.91c-0.004-0.172-0.019-0.344-0.039-0.514
				C97.062,237.353,94.767,235.377,92.061,235.377z M90.15,241.14c-0.903,0-1.637-0.733-1.637-1.637
				c0-0.901,0.734-1.637,1.637-1.637c0.902,0,1.636,0.735,1.636,1.637C91.787,240.406,91.052,241.14,90.15,241.14z M94.342,240.336
				c-0.663,0-1.204-0.538-1.204-1.202s0.541-1.204,1.204-1.204c0.664,0,1.204,0.54,1.204,1.204S95.005,240.336,94.342,240.336z"/>
		</g>
		<path id="XMLID_46_" fill="#A4B5C4" d="M106.221,237.029c-0.262-0.104-0.713-0.275-1.224-0.212
			c-0.487,0.062-0.747,0.301-0.747,0.891v0.767h1.971v1.52h-1.971v4.827h-1.709v-4.827h-1.185v-1.52h1.185v-0.785
			c0-1.487,0.792-2.463,2.273-2.463c0.568,0,1.024,0.108,1.407,0.272V237.029z"/>
		<path id="XMLID_44_" fill="#A4B5C4" d="M110.38,239.977c-0.156-0.027-0.316-0.042-0.465-0.042c-0.792,0-1.336,0.484-1.336,1.429
			v3.458h-1.709v-6.347h1.658v0.694c0.398-0.596,1.008-0.864,1.787-0.864c0.366,0,0.75,0.113,0.968,0.298L110.38,239.977z"/>
		<path id="XMLID_41_" fill="#A4B5C4" d="M117.164,241.638c0,0.196-0.012,0.432-0.032,0.577h-4.499
			c0.183,0.916,0.826,1.315,1.631,1.315c0.55,0,1.145-0.221,1.604-0.608l1.002,1.101c-0.72,0.659-1.638,0.962-2.705,0.962
			c-1.945,0-3.293-1.323-3.293-3.321c0-1.996,1.31-3.358,3.208-3.358C115.907,238.305,117.158,239.66,117.164,241.638z
			 M112.639,241.049h2.809c-0.156-0.813-0.648-1.271-1.381-1.271C113.261,239.777,112.79,240.262,112.639,241.049z"/>
		<path id="XMLID_38_" fill="#A4B5C4" d="M123.936,241.638c0,0.196-0.014,0.432-0.034,0.577h-4.498
			c0.183,0.916,0.824,1.315,1.63,1.315c0.549,0,1.146-0.221,1.604-0.608l1.001,1.101c-0.721,0.659-1.637,0.962-2.705,0.962
			c-1.945,0-3.294-1.323-3.294-3.321c0-1.996,1.31-3.358,3.209-3.358C122.678,238.305,123.929,239.66,123.936,241.638z
			 M119.411,241.049h2.81c-0.158-0.813-0.649-1.271-1.383-1.271C120.032,239.777,119.561,240.262,119.411,241.049z"/>
		<path id="XMLID_35_" fill="#A4B5C4" d="M131.319,241.644c0,1.906-1.323,3.341-3.071,3.341c-0.852,0-1.454-0.335-1.867-0.825v3.281
			h-1.703v-8.966h1.67v0.699c0.412-0.516,1.021-0.869,1.892-0.869C129.996,238.305,131.319,239.739,131.319,241.644z
			 M126.296,241.644c0,1.003,0.662,1.749,1.631,1.749c1.008,0,1.637-0.779,1.637-1.749c0-0.969-0.629-1.748-1.637-1.748
			C126.958,239.896,126.296,240.643,126.296,241.644z"/>
		<path id="XMLID_32_" fill="#A4B5C4" d="M134.065,236.4c0,0.614-0.478,1.087-1.093,1.087c-0.616,0-1.088-0.473-1.088-1.087
			c0-0.618,0.472-1.102,1.088-1.102C133.587,235.299,134.065,235.782,134.065,236.4z M133.836,244.821h-1.709v-6.347h1.709V244.821z
			"/>
		<path id="XMLID_30_" fill="#A4B5C4" d="M136.688,240.732l2.39-2.258h2.097l-3.079,2.987l3.098,3.359h-2.103l-2.403-2.568v2.568
			h-1.709v-9.431h1.709V240.732z"/>
	</g>
	<g>
		<path fill="#A4B5C4" d="M20.237,244.764v-0.934c-0.467,0.636-1.23,1.09-2.111,1.09c-1.633,0-2.788-1.245-2.788-3.281
			c0-1.995,1.141-3.291,2.788-3.291c0.841,0,1.607,0.414,2.111,1.102v-3.33h0.973v8.645H20.237z M20.237,243.064v-2.838
			c-0.349-0.544-1.101-1.011-1.878-1.011c-1.258,0-2.01,1.038-2.01,2.423c0,1.389,0.752,2.411,2.01,2.411
			C19.136,244.05,19.888,243.609,20.237,243.064z"/>
		<path fill="#A4B5C4" d="M22.466,241.626c0-1.813,1.296-3.278,3.084-3.278c1.893,0,3.007,1.477,3.007,3.357v0.245H23.49
			c0.078,1.181,0.907,2.165,2.255,2.165c0.712,0,1.438-0.285,1.931-0.791l0.466,0.636c-0.621,0.622-1.464,0.96-2.488,0.96
			C23.801,244.92,22.466,243.583,22.466,241.626z M25.538,239.151c-1.335,0-1.996,1.127-2.048,2.087h4.108
			C27.585,240.306,26.963,239.151,25.538,239.151z"/>
		<path fill="#A4B5C4" d="M29.257,243.934l0.504-0.7c0.415,0.479,1.207,0.894,2.062,0.894c0.959,0,1.478-0.452,1.478-1.074
			c0-1.518-3.876-0.584-3.876-2.903c0-0.974,0.843-1.802,2.333-1.802c1.063,0,1.814,0.402,2.321,0.907l-0.454,0.673
			c-0.375-0.452-1.063-0.788-1.867-0.788c-0.855,0-1.386,0.426-1.386,0.984c0,1.374,3.874,0.467,3.874,2.903
			c0,1.049-0.841,1.893-2.462,1.893C30.761,244.92,29.892,244.607,29.257,243.934z"/>
		<path fill="#A4B5C4" d="M35.335,236.961c0-0.362,0.299-0.661,0.647-0.661c0.363,0,0.662,0.299,0.662,0.661
			c0,0.363-0.298,0.648-0.662,0.648C35.634,237.609,35.335,237.324,35.335,236.961z M35.503,244.764v-6.261h0.972v6.261H35.503z"/>
		<path fill="#A4B5C4" d="M38.082,246.371l0.493-0.727c0.519,0.622,1.141,0.855,2.035,0.855c1.037,0,2.008-0.506,2.008-1.88v-0.894
			c-0.453,0.635-1.217,1.114-2.099,1.114c-1.633,0-2.787-1.218-2.787-3.239c0-2.01,1.141-3.254,2.787-3.254
			c0.841,0,1.594,0.414,2.099,1.102v-0.946h0.972v6.079c0,2.073-1.452,2.722-2.98,2.722
			C39.546,247.304,38.821,247.097,38.082,246.371z M42.618,242.961v-2.734c-0.336-0.544-1.088-1.011-1.866-1.011
			c-1.258,0-2.009,0.998-2.009,2.386c0,1.374,0.75,2.385,2.009,2.385C41.529,243.986,42.281,243.506,42.618,242.961z"/>
		<path fill="#A4B5C4" d="M49.435,244.764v-4.096c0-1.103-0.557-1.452-1.399-1.452c-0.765,0-1.491,0.467-1.854,0.972v4.576h-0.97
			v-6.261h0.97v0.907c0.441-0.519,1.296-1.063,2.229-1.063c1.309,0,1.996,0.661,1.996,2.021v4.395H49.435z"/>
		<path fill="#A4B5C4" d="M51.664,241.626c0-1.813,1.296-3.278,3.084-3.278c1.892,0,3.007,1.477,3.007,3.357v0.245h-5.068
			c0.078,1.181,0.908,2.165,2.255,2.165c0.712,0,1.438-0.285,1.932-0.791l0.466,0.636c-0.622,0.622-1.465,0.96-2.489,0.96
			C52.999,244.92,51.664,243.583,51.664,241.626z M54.735,239.151c-1.335,0-1.996,1.127-2.048,2.087h4.108
			C56.783,240.306,56.161,239.151,54.735,239.151z"/>
		<path fill="#A4B5C4" d="M63.534,244.764v-0.934c-0.467,0.636-1.23,1.09-2.112,1.09c-1.632,0-2.787-1.245-2.787-3.281
			c0-1.995,1.141-3.291,2.787-3.291c0.842,0,1.608,0.414,2.112,1.102v-3.33h0.972v8.645H63.534z M63.534,243.064v-2.838
			c-0.35-0.544-1.101-1.011-1.878-1.011c-1.259,0-2.01,1.038-2.01,2.423c0,1.389,0.751,2.411,2.01,2.411
			C62.434,244.05,63.185,243.609,63.534,243.064z"/>
		<path fill="#A4B5C4" d="M69.145,244.764v-8.645h0.973v3.33c0.505-0.688,1.256-1.102,2.112-1.102c1.633,0,2.787,1.296,2.787,3.291
			c0,2.036-1.154,3.281-2.787,3.281c-0.881,0-1.645-0.454-2.112-1.09v0.934H69.145z M71.984,244.05c1.271,0,2.022-1.022,2.022-2.411
			c0-1.385-0.751-2.423-2.022-2.423c-0.766,0-1.529,0.467-1.866,1.011v2.838C70.455,243.609,71.219,244.05,71.984,244.05z"/>
		<path fill="#A4B5C4" d="M76.079,246.331c0.143,0.065,0.376,0.104,0.531,0.104c0.428,0,0.713-0.143,0.933-0.66l0.415-0.947
			l-2.618-6.324h1.05l2.085,5.133l2.074-5.133h1.063l-3.136,7.531c-0.375,0.906-1.011,1.256-1.84,1.27
			c-0.207,0-0.531-0.04-0.712-0.092L76.079,246.331z"/>
	</g>
</g>
</svg>
