<?xml version="1.0" encoding="utf-8"?>
<!-- Generator: Adobe Illustrator 16.0.0, SVG Export Plug-In . SVG Version: 6.00 Build 0)  -->
<!DOCTYPE svg PUBLIC "-//W3C//DTD SVG 1.1//EN" "http://www.w3.org/Graphics/SVG/1.1/DTD/svg11.dtd">
<svg version="1.1" id="Layer_1" xmlns="http://www.w3.org/2000/svg" xmlns:xlink="http://www.w3.org/1999/xlink" x="0px" y="0px"
	 width="380px" height="50px" viewBox="0 0 380 50" enable-background="new 0 0 380 50" xml:space="preserve">
<g>
	<g>
		<linearGradient id="SVGID_1_" gradientUnits="userSpaceOnUse" x1="0.4038" y1="25" x2="379.5957" y2="25">
			<stop  offset="0" style="stop-color:#4ABB84"/>
			<stop  offset="0.0905" style="stop-color:#43AA90"/>
			<stop  offset="0.2339" style="stop-color:#36969E"/>
			<stop  offset="0.3807" style="stop-color:#2E85A7"/>
			<stop  offset="0.5292" style="stop-color:#2978AC"/>
			<stop  offset="0.6801" style="stop-color:#256FAF"/>
			<stop  offset="0.835" style="stop-color:#226AB1"/>
			<stop  offset="1" style="stop-color:#2068B3"/>
		</linearGradient>
		<path fill-rule="evenodd" clip-rule="evenodd" fill="url(#SVGID_1_)" d="M23.803,5.572c-4.868,0-8.873,1.651-12.015,4.955
			c-3.143,3.305-4.714,8.37-4.714,15.196c0,5.58,1.539,10.091,4.614,13.537c3.076,3.445,7.07,5.169,11.983,5.169
			c4.935,0,8.934-1.707,11.998-5.12c3.065-3.412,4.609-8.16,4.63-14.242c0-6.258-1.565-11.072-4.697-14.441
			C32.472,7.256,28.539,5.572,23.803,5.572L23.803,5.572z M341.324,0.943h6.574l25.424,37.775h0.133V0.943h6.141v48.112h-6.605
			l-25.426-37.773h-0.133v37.773h-6.107V0.943L341.324,0.943L341.324,0.943z M296.393,0.943h35.217v5.71H302.83v14.703h26.92v5.711
			h-26.92v16.277h29.906v5.71h-36.344V0.943L296.393,0.943L296.393,0.943z M246.479,0.943h6.938l12.646,34.953
			c0.951,2.23,1.793,4.845,2.521,7.843h0.135c0.662-2.559,1.502-5.176,2.521-7.843l13.176-34.953h6.539l-19.051,48.112h-6.572
			L246.479,0.943L246.479,0.943L246.479,0.943z M206.523,0.943h35.217v5.71h-28.777v14.703h26.918v5.711h-26.918v16.277h29.906v5.71
			h-36.346V0.943L206.523,0.943L206.523,0.943z M139.411,0.943h6.472v48.112h-6.472V0.943L139.411,0.943L139.411,0.943z
			 M97.136,0.943h32.827v5.71h-26.387v14.9h22.868v5.712h-22.868v21.79h-6.44V0.943L97.136,0.943L97.136,0.943z M55.659,0.943
			h32.827v5.71H62.099v14.9h22.868v5.712H62.099v21.79h-6.44V0.943L55.659,0.943L55.659,0.943z M177.993,0.123
			c4.735,0,8.784,1.193,12.146,3.578c3.365,2.385,5.722,5.875,7.072,10.469l-6.307,1.477c-1.062-3.347-2.677-5.863-4.847-7.548
			c-2.168-1.684-4.879-2.526-8.132-2.526c-5.31,0-9.338,1.723-12.082,5.169c-2.743,3.446-4.116,8.067-4.116,13.865
			c0,6.697,1.444,11.673,4.332,14.934c2.889,3.259,6.655,4.89,11.302,4.89c3.806,0,6.898-1.018,9.277-3.053
			c2.379-2.033,4.043-5.098,4.994-9.189l6.408,1.609c-1.418,5.405-3.889,9.436-7.418,12.093c-3.531,2.659-7.763,3.988-12.697,3.988
			c-7.966,0-13.769-2.467-17.409-7.4c-3.64-4.936-5.459-10.869-5.459-17.804c0-7.682,2.14-13.692,6.422-18.035
			C165.761,2.294,171.265,0.123,177.993,0.123L177.993,0.123z M23.737,0.123c6.815,0,12.392,2.286,16.729,6.859
			c4.336,4.573,6.505,10.601,6.505,18.084c0,7.459-2.18,13.46-6.539,17.999c-4.359,4.542-9.924,6.812-16.695,6.812
			c-7.015,0-12.658-2.353-16.928-7.058C2.539,38.116,0.404,32.374,0.404,25.59c0-7.898,2.163-14.117,6.488-18.657
			C11.219,2.393,16.833,0.123,23.737,0.123L23.737,0.123z"/>
	</g>
</g>
</svg>
